<?xml version="1.0" encoding="UTF-8"?>
<svg height="640" id="Capa_1" data-name="Capa 1" xmlns="http://www.w3.org/2000/svg" viewBox="0 0 513.2 595.3">
  <defs>
    <style>
      .cls-1 {
        fill: #fff;
      }

      .cls-2 {
        fill: #e10022;
      }

      .cls-3 {
        fill: #ffdb00;
      }

      .cls-4 {
        fill: #001689;
      }
    </style>
  </defs>
  <g id="_레이어_1" data-name=" 레이어 1">
    <g>
      <rect class="cls-4" width="513.2" height="595.3"/>
      <path class="cls-1" d="m122.1,467.6l-.5-3.1c-.9-5.9.7-10.3,5.4-14.6l56.8-51.4c12.7-11,22.1-21.6,22.1-35.2s-11-22.3-25.8-22.3-20.9,5.9-24,12.7c-3.1,6.3-5.4,9.9-12.2,9.9h-12.9c-7.5,0-12.2-4.5-10.6-11.7,4.5-20.7,21.6-40.9,60.4-40.9,35.9,0,60.4,20.4,60.4,53.1,0,23.7-14.8,41.3-30.5,54.7l-35.5,30.1.2.9c9.2-.9,32.2-1.4,34.1-1.4h27.5c7.3,0,11.3,4.2,11.3,11.5v6.8c0,7.3-4,11.3-11.3,11.3h-102.6c-6.9-.1-11.1-3.6-12.3-10.4"/>
      <path class="cls-1" d="m276.5,467.8c-5.4-3.7-5.6-9.1-1.6-14.2l5.6-7.2c3.7-4.9,8.4-5.6,14-2.6,12.4,6.8,21.5,8.2,32.2,8.2,24.5,0,36.4-14.2,36.4-28.5,0-15.6-13.3-25.7-30.1-25.7-3.7,0-8.9.5-14,2.3-5.8,1.6-10.1.9-13.6-4l-2.6-3.3c-3.5-5.1-2.8-10,2.1-14.2l38.1-33.4h-55.4c-6.5,0-10.3-3.7-10.3-10.3v-9.1c0-6.3,3.7-10,10.3-10h95.3c6.3,0,10.1,3.7,10.1,10v3.5c0,5.1-1.9,8.9-5.8,12.4l-40.4,34.8c3.3,0,6.5.2,9.6.9,22.9,3.3,42.8,19.4,42.8,47,0,32-24.5,57.5-69.9,57.5-20.3-.1-38.7-5-52.8-14.1"/>
      <path class="cls-2" d="m385.6,154.8h-100.7c-4.9,0-8.9-4-8.9-8.9v-18.6c0-4.9,4-8.9,8.9-8.9h100.7c4.9,0,8.9,4,8.9,8.9v18.6c0,4.9-4,8.9-8.9,8.9"/>
      <path class="cls-3" d="m385.6,217.9h-100.7c-4.9,0-8.9-4-8.9-8.9v-18.6c0-4.9,4-8.9,8.9-8.9h100.7c4.9,0,8.9,4,8.9,8.9v18.6c0,4.9-4,8.9-8.9,8.9"/>
      <path class="cls-2" d="m385.6,281.1h-100.7c-4.9,0-8.9-4-8.9-8.9v-18.6c0-4.9,4-8.9,8.9-8.9h100.7c4.9,0,8.9,4,8.9,8.9v18.6c0,4.9-4,8.9-8.9,8.9"/>
      <path class="cls-1" d="m118.9,221.4v-91.9c0-7.1,4.1-11,11.2-11h14.2c7.1,0,11,3.9,11,11v91.9c0,20.8,13.7,31.6,30,31.6s30.2-10.8,30.2-31.6v-91.9c0-7.1,4.1-11,11.2-11h14.2c7.1,0,11,3.9,11,11v91.9c0,41.2-30.4,63.1-66.6,63.1s-66.4-22-66.4-63.1"/>
    </g>
  </g>
</svg>