<?xml version="1.0" encoding="UTF-8"?>
<svg height="1064" id="Capa_1" data-name="Capa 1" xmlns="http://www.w3.org/2000/svg" viewBox="0 0 778.49 595.39">
  <defs>
    <style>
      .cls-1 {
        isolation: isolate;
      }

      .cls-2 {
        fill: #1a171b;
      }

      .cls-3 {
        fill: #f7d117;
        stroke: #f7d117;
        stroke-miterlimit: 3.86;
        stroke-width: 2.69px;
      }
    </style>
  </defs>
  <g id="_레이어_1" data-name=" 레이어 1">
    <g>
      <rect class="cls-3" x="1.35" y="1.35" width="775.8" height="592.7"/>
      <g class="cls-1">
        <path class="cls-2" d="m144.15,233.75h6.6v49h-7.1v-38.2l-15.1,19h-1.3l-15.3-19v38.2h-7v-49h6.6l16.3,20.1,16.3-20.1Z"/>
        <path class="cls-2" d="m161.35,233.75h7v49h-7v-49Z"/>
        <path class="cls-2" d="m218.15,233.75h6.7v49h-6l-32.8-37.8v37.8h-6.6v-49h5.7l33.1,38.1v-38.1h-.1Z"/>
        <path class="cls-2" d="m235.45,233.75h7v49h-7v-49Z"/>
        <path class="cls-2" d="m265.45,262.25l-5.3-3.2c-3.3-2-5.7-4.1-7.1-6-1.4-2-2.1-4.3-2.1-6.8,0-3.9,1.3-7,4-9.4s6.2-3.6,10.4-3.6,7.9,1.1,11.3,3.4v8c-3.5-3.4-7.3-5.1-11.4-5.1-2.3,0-4.2.5-5.7,1.6s-2.2,2.4-2.2,4.1c0,1.5.5,2.8,1.6,4.1s2.8,2.6,5.2,4l5.4,3.2c6,3.6,9,8.1,9,13.6,0,3.9-1.3,7.1-4,9.6-2.6,2.5-6.1,3.7-10.3,3.7-4.8,0-9.3-1.5-13.2-4.5v-8.9c3.8,4.8,8.2,7.2,13.2,7.2,2.2,0,4-.6,5.5-1.8,1.5-1.2,2.2-2.8,2.2-4.6,0-3.1-2.2-6-6.5-8.6Z"/>
        <path class="cls-2" d="m282.05,233.64h41v6.2h-17.1v42.9h-7.1v-42.9h-16.8v-6.2Z"/>
        <path class="cls-2" d="m329.65,233.75h27.8v6.2h-20.8v15h20.1v6.3h-20.1v15.2h21.5v6.2h-28.5v-48.9Z"/>
        <path class="cls-2" d="m365.85,282.75v-49h12.3c5,0,8.9,1.2,11.8,3.7s4.4,5.8,4.4,10c0,2.9-.7,5.3-2.1,7.4s-3.5,3.6-6.1,4.7c1.6,1,3.1,2.4,4.6,4.2,1.5,1.8,3.6,4.9,6.3,9.3,1.7,2.8,3.1,4.9,4.1,6.3l2.6,3.5h-8.4l-2.1-3.2c-.1-.1-.2-.3-.4-.6l-1.4-1.9-2.2-3.6-2.3-3.8c-1.4-2-2.8-3.6-4-4.8s-2.3-2.1-3.3-2.6-2.6-.8-4.9-.8h-1.8v21.2h-7.1Zm9.1-43.1h-2.1v15.5h2.7c3.6,0,6-.3,7.3-.9s2.4-1.5,3.1-2.8c.7-1.2,1.1-2.6,1.1-4.2,0-1.5-.4-2.9-1.2-4.2-.8-1.3-2-2.1-3.5-2.7-1.5-.4-3.9-.7-7.4-.7Z"/>
        <path class="cls-2" d="m409.15,233.75h7v49h-7v-49Z"/>
        <path class="cls-2" d="m451.15,233.05c7.6,0,13.9,2.4,18.9,7.2s7.6,10.8,7.6,18-2.5,13.2-7.6,18c-5.1,4.7-11.5,7.1-19.2,7.1s-13.5-2.4-18.5-7.1c-4.9-4.7-7.4-10.7-7.4-17.8s2.5-13.4,7.4-18.2c4.9-4.8,11.2-7.2,18.8-7.2Zm.2,6.6c-5.6,0-10.2,1.8-13.8,5.3-3.6,3.5-5.4,8-5.4,13.4s1.8,9.7,5.4,13.2,8.2,5.3,13.6,5.3,10-1.8,13.7-5.4,5.5-8,5.5-13.4-1.8-9.6-5.5-13.1c-3.6-3.5-8.1-5.3-13.5-5.3Z"/>
      </g>
      <g class="cls-1">
        <path class="cls-2" d="m105.15,359.54v-49h16.5c6.7,0,11.9,1,15.8,3s7,4.9,9.3,8.8,3.4,8.1,3.4,12.7c0,3.3-.6,6.4-1.9,9.4s-3.1,5.6-5.4,7.9c-2.4,2.3-5.2,4.1-8.3,5.3-1.8.7-3.5,1.2-5.1,1.5-1.5.2-4.5.4-8.8.4h-15.5Zm15.8-42.7h-8.8v36.5h9c3.5,0,6.2-.2,8.2-.7,1.9-.5,3.6-1.1,4.9-1.8s2.5-1.6,3.6-2.7c3.5-3.5,5.2-7.9,5.2-13.3s-1.8-9.6-5.3-12.9c-1.3-1.2-2.8-2.3-4.5-3.1-1.7-.8-3.3-1.3-4.8-1.6-1.7-.3-4.1-.4-7.5-.4Z"/>
        <path class="cls-2" d="m159.05,310.54h27.8v6.2h-20.8v15h20.1v6.3h-20.1v15.2h21.5v6.2h-28.5v-48.9Z"/>
        <path class="cls-2" d="m257.25,348.25v7.7c-5.1,2.8-11.1,4.2-17.8,4.2-5.5,0-10.1-1.1-13.9-3.3-3.8-2.2-6.8-5.2-9.1-9.1-2.2-3.9-3.3-8-3.3-12.5,0-7.1,2.5-13.1,7.6-18s11.4-7.3,18.8-7.3c5.1,0,10.9,1.3,17.2,4v7.5c-5.7-3.3-11.3-4.9-16.8-4.9s-10.3,1.8-14,5.3-5.6,8-5.6,13.3,1.8,9.8,5.5,13.3,8.3,5.2,14,5.2c5.9.1,11.7-1.7,17.4-5.4Z"/>
        <path class="cls-2" d="m265.95,310.54h7v49h-7v-49Z"/>
        <path class="cls-2" d="m283.85,310.54h27.8v6.2h-20.8v15h20.1v6.3h-20.1v15.2h21.5v6.2h-28.5v-48.9Z"/>
        <path class="cls-2" d="m358.75,310.54h6.7v49h-6l-32.8-37.8v37.8h-6.6v-49h5.7l33.1,38.1v-38.1h-.1Z"/>
        <path class="cls-2" d="m418.15,348.25v7.7c-5.1,2.8-11.1,4.2-17.8,4.2-5.5,0-10.1-1.1-13.9-3.3-3.8-2.2-6.8-5.2-9.1-9.1-2.2-3.9-3.3-8-3.3-12.5,0-7.1,2.5-13.1,7.6-18s11.4-7.3,18.8-7.3c5.1,0,10.9,1.3,17.2,4v7.5c-5.7-3.3-11.3-4.9-16.8-4.9s-10.3,1.8-14,5.3-5.6,8-5.6,13.3,1.8,9.8,5.5,13.3,8.3,5.2,14,5.2c6,.1,11.8-1.7,17.4-5.4Z"/>
        <path class="cls-2" d="m426.95,310.54h7v49h-7v-49Z"/>
        <path class="cls-2" d="m460.45,310.35h4.9l22,49.3h-7.2l-6.5-14.5h-20.9l-6.1,14.5h-7.2l21-49.3Zm10.3,28.5l-7.9-17.8-7.3,17.8h15.2Z"/>
      </g>
      <g class="cls-1">
        <path class="cls-2" d="m105.15,387.45h27.8v6.2h-20.8v15h20.1v6.3h-20.1v15.2h21.5v6.2h-28.5v-48.9Z"/>
        <path class="cls-2" d="m161.15,387.45h7v49h-7v-49Z"/>
        <path class="cls-2" d="m217.95,387.45h6.7v49h-6l-32.8-37.8v37.8h-6.6v-49h5.7l33.1,38.1v-38.1h-.1Z"/>
        <path class="cls-2" d="m274.15,387.45h6.7v49h-6l-32.8-37.8v37.8h-6.6v-49h5.7l33.1,38.1v-38.1h-.1Z"/>
      </g>
      <g class="cls-1">
        <path class="cls-2" d="m315.35,386.75c7.6,0,13.9,2.4,18.9,7.2,5,4.8,7.6,10.8,7.6,18s-2.5,13.2-7.6,18c-5.1,4.7-11.5,7.1-19.2,7.1s-13.5-2.4-18.5-7.1c-4.9-4.7-7.4-10.7-7.4-17.8s2.5-13.4,7.4-18.2,11.2-7.2,18.8-7.2Zm.3,6.7c-5.6,0-10.2,1.8-13.8,5.3s-5.4,8-5.4,13.4,1.8,9.7,5.4,13.2,8.2,5.3,13.6,5.3,10-1.8,13.7-5.4,5.5-8,5.5-13.4-1.8-9.6-5.5-13.1c-3.7-3.5-8.2-5.3-13.5-5.3Z"/>
      </g>
      <g class="cls-1">
        <path class="cls-2" d="m379.05,387.45h7l-20.7,49.3h-1.6l-21.1-49.3h7.1l14.8,34.4,14.5-34.4Z"/>
      </g>
      <g class="cls-1">
        <path class="cls-2" d="m402.15,387.25h4.9l22,49.3h-7.2l-6.5-14.5h-20.9l-6.1,14.5h-7.2l21-49.3Zm10.3,28.5l-7.9-17.8-7.3,17.8h15.2Z"/>
      </g>
      <g class="cls-1">
        <path class="cls-2" d="m474.25,425.14v7.7c-5.1,2.8-11.1,4.2-17.8,4.2-5.5,0-10.1-1.1-13.9-3.3-3.8-2.2-6.8-5.2-9.1-9.1-2.2-3.9-3.3-8-3.3-12.5,0-7.1,2.5-13.1,7.6-18s11.4-7.3,18.8-7.3c5.1,0,10.9,1.3,17.2,4v7.5c-5.7-3.3-11.3-4.9-16.8-4.9s-10.3,1.8-14,5.3-5.6,8-5.6,13.3,1.8,9.8,5.5,13.3,8.3,5.2,14,5.2c5.9.1,11.7-1.7,17.4-5.4Z"/>
        <path class="cls-2" d="m482.95,387.45h7v49h-7v-49Z"/>
        <path class="cls-2" d="m524.85,386.75c7.6,0,13.9,2.4,18.9,7.2s7.6,10.8,7.6,18-2.5,13.2-7.6,18c-5.1,4.7-11.5,7.1-19.2,7.1s-13.5-2.4-18.5-7.1c-4.9-4.7-7.4-10.7-7.4-17.8s2.5-13.4,7.4-18.2c5-4.8,11.3-7.2,18.8-7.2Zm.3,6.7c-5.6,0-10.2,1.8-13.8,5.3-3.6,3.5-5.4,8-5.4,13.4s1.8,9.7,5.4,13.2,8.2,5.3,13.6,5.3,10-1.8,13.7-5.4,5.5-8,5.5-13.4-1.8-9.6-5.5-13.1c-3.6-3.5-8.1-5.3-13.5-5.3Zm6.9-20.1l-7.9,10.5h-3.9l4.7-10.5h7.1Z"/>
        <path class="cls-2" d="m598.95,387.45h6.7v49h-6l-32.8-37.8v37.8h-6.6v-49h5.7l33.1,38.1v-38.1h-.1Z"/>
      </g>
    </g>
  </g>
</svg>