<svg height="2908" id="Capa_1" data-name="Capa 1" xmlns="http://www.w3.org/2000/svg" xmlns:xlink="http://www.w3.org/1999/xlink" viewBox="0 0 509.4 595.3">
  <defs>
    <style>
      .cls-1 {
        fill: #fff;
      }

      .cls-2 {
        fill: #053a8b;
      }

      .cls-3 {
        fill: url(#Degradado_sin_nombre_2);
      }

      .cls-4 {
        fill: url(#Degradado_sin_nombre);
      }
    </style>
    <linearGradient id="Degradado_sin_nombre" data-name="Degradado sin nombre" x1="1785.61" y1="-872.1" x2="2084.4" y2="-872.1" gradientTransform="translate(-1692 1104)" gradientUnits="userSpaceOnUse">
      <stop offset="0" stop-color="#fff"/>
      <stop offset="1" stop-color="#073b8a"/>
    </linearGradient>
    <linearGradient id="Degradado_sin_nombre_2" data-name="Degradado sin nombre 2" x1="1757.17" y1="-944.8" x2="2017.59" y2="-944.8" gradientTransform="translate(-1692 1104)" gradientUnits="userSpaceOnUse">
      <stop offset="0" stop-color="#fff"/>
      <stop offset="1" stop-color="#073b8a"/>
    </linearGradient>
  </defs>
  <g id="_레이어_1" data-name=" 레이어 1">
    <rect class="cls-1" width="509.4" height="595.3"/>
    <g>
      <path class="cls-2" d="m399.6,491.7c0,5.2-40.9-29.9-74-53.8,0,0,75.7-141.7,20.9-405.5,0,0,98.4,30.1,97.8,34.9-3.6,27.7-44.6,161.5-44.7,424.4h0Z"/>
      <path class="cls-4" d="m239.4,363.9C47.4,237.7,276.1,59.3,276.1,59.3c0,0-373.9,212.2-51.3,324.1,25.8,8.9,92.6,17.6,167.6,21.1,0,0-108.6-11.4-153-40.6h0Z"/>
      <path class="cls-3" d="m247.7,56.1s89.6,7.5,76.6,67.4c-21.8,100.5-248.1,138.1-258.7,138.8-11.4.7,207.1-57.4,226.2-151.5,9-44.5-44.1-54.7-44.1-54.7Z"/>
      <g>
        <path d="m117.9,463l8.2-38.4h5.2l8.2,38.4h-5.1l-1.8-9.7h-7.8l-1.8,9.7h-5.1Zm7.6-13.5h6.4l-3.2-17.4-3.2,17.4h0Z"/>
        <path d="m151.7,463.5c-3.5,0-6-1.1-7.6-3.3-1.6-2.2-2.3-5.5-2.3-9.8v-12.9c0-1.8.1-3.3.3-4.6.2-1.3.5-2.6,1-3.7s1.1-2,1.9-2.8c.8-.7,1.8-1.3,2.9-1.6,1.2-.4,2.6-.6,4.2-.6,3.6,0,6.1.9,7.7,2.7,1.6,1.8,2.3,4.6,2.3,8.5v1.4h-5v-1.2c0-1.1,0-2-.1-2.7s-.2-1.4-.4-2-.5-1.1-.8-1.5c-.4-.3-.8-.6-1.4-.8-.6-.2-1.3-.3-2.2-.3-.7,0-1.2.1-1.8.2-.5.1-.9.3-1.3.6-.4.2-.6.6-.9,1-.2.4-.4.8-.6,1.2-.1.4-.2.9-.3,1.6-.1.6-.1,1.2-.1,1.8v16.2c0,2.9.4,5.1,1.1,6.4.7,1.3,2.1,1.9,4.1,1.9s3.4-.7,4.1-2.1c.7-1.4,1.1-3.6,1.1-6.7v-2.7h-4.9v-3.8h9.7v19h-3.4l-.5-4.4c-1.1,3.4-3.4,5-6.8,5h0Z"/>
        <polygon points="167.4 463 167.4 424.6 182.3 424.6 182.3 428.6 172.8 428.6 172.8 441.3 180.5 441.3 180.5 445.1 172.8 445.1 172.8 459.2 182.4 459.2 182.4 463 167.4 463"/>
        <polygon points="186.2 463 186.2 424.6 189.8 424.6 200.7 450.1 200.7 424.6 205.2 424.6 205.2 463 201.8 463 190.7 436.8 190.7 463 186.2 463"/>
        <path d="m220.2,463.4c-1.6,0-3-.2-4.2-.6s-2.2-1-3-1.8c-.8-.7-1.4-1.6-1.9-2.8-.5-1.1-.8-2.3-1-3.5s-.3-2.6-.3-4.1v-13.6c0-1.6.1-3.1.3-4.3.2-1.3.5-2.5,1-3.5.5-1.1,1.1-2,1.9-2.7.8-.7,1.8-1.3,3-1.7,1.2-.4,2.6-.6,4.2-.6,3.5,0,5.9.9,7.4,2.8s2.2,4.6,2.2,8.2v3.1h-5.1v-5.3c0-.5-.1-.9-.1-1.2-.1-.3-.1-.6-.2-1-.1-.4-.2-.7-.4-.9-.1-.2-.4-.4-.6-.7-.2-.2-.5-.4-.8-.5s-.6-.2-1-.3c-.4-.1-.9-.1-1.3-.1-.7,0-1.4.1-1.9.2-.6.2-1,.4-1.4.8s-.6.7-.9,1.1c-.2.4-.4,1-.5,1.6s-.2,1.3-.2,1.9-.1,1.4-.1,2.3v15.2c0,2.9.4,4.9,1.1,6,.7,1.1,2,1.7,3.9,1.7.7,0,1.3-.1,1.8-.2s.9-.4,1.3-.8c.3-.4.6-.7.8-1.1s.4-.9.4-1.6c.1-.7.1-1.3.2-1.8,0-.5.1-1.3.1-2.2v-2.8h5.1v2.9c0,1.5-.1,2.8-.3,3.9-.2,1.2-.5,2.2-.9,3.3-.4,1-1,1.9-1.8,2.5-.7.7-1.7,1.2-2.8,1.6-1.2.4-2.5.6-4,.6h0Z"/>
        <rect x="234.7" y="424.6" width="5.2" height="38.4"/>
        <path d="m243.5,463l8.2-38.4h5.2l8.2,38.4h-5.1l-1.8-9.7h-7.8l-1.8,9.7h-5.1Zm7.6-13.5h6.4l-3.2-17.4-3.2,17.4Z"/>
      </g>
      <g>
        <path d="m176.8,509.9l8.2-38.4h5.2l8.2,38.4h-5.1l-1.8-9.7h-7.8l-1.8,9.7h-5.1Zm7.6-13.5h6.4l-3.2-17.4-3.2,17.4h0Z"/>
        <g>
          <polygon points="120 509.9 120 471.5 134.9 471.5 134.9 475.5 125.3 475.5 125.3 488.2 133.1 488.2 133.1 492 125.3 492 125.3 506.1 135 506.1 135 509.9 120 509.9"/>
          <path d="m147.8,510.4c-3.2,0-5.7-1-7.4-3s-2.6-4.7-2.8-8.2l4.8-1.3c.4,5.5,2.1,8.2,5.4,8.2,1.4,0,2.4-.4,3.1-1.1.7-.8,1.1-1.9,1.1-3.4,0-.8-.1-1.6-.3-2.2-.2-.7-.5-1.3-.9-1.9s-.9-1.1-1.2-1.5-.9-1-1.7-1.6l-6.4-5.7c-1.3-1.2-2.2-2.4-2.8-3.7-.6-1.3-.9-2.9-.9-4.8,0-2.8.8-5,2.4-6.5,1.6-1.5,3.8-2.3,6.6-2.4,3.1,0,5.4.7,6.9,2.4s2.4,4.1,2.8,7.6l-4.5,1.2c-.1-.8-.1-1.6-.3-2.2-.1-.6-.3-1.3-.5-2s-.6-1.2-.9-1.6c-.4-.4-.8-.7-1.4-1-.6-.2-1.3-.3-2-.3-2.8.2-4.2,1.6-4.2,4.2,0,1.1.2,2.1.6,2.8.4.8,1,1.5,1.9,2.4l6.5,5.7c1.7,1.5,3,3.1,4,4.9,1,1.7,1.5,3.7,1.5,5.9,0,2.8-.9,5-2.6,6.7-1.9,1.5-4.1,2.4-6.8,2.4h0Z"/>
          <polygon points="164.6 509.9 164.6 475.5 157.5 475.5 157.5 471.5 176.7 471.5 176.7 475.5 169.9 475.5 169.9 509.9 164.6 509.9"/>
          <polygon points="204.1 509.9 204.1 475.5 197.1 475.5 197.1 471.5 216.2 471.5 216.2 475.5 209.4 475.5 209.4 509.9 204.1 509.9"/>
          <path d="m216.3,509.9l8.2-38.4h5.2l8.2,38.4h-5.1l-1.8-9.7h-7.8l-1.8,9.7h-5.1Zm7.6-13.5h6.4l-3.2-17.4-3.2,17.4h0Z"/>
          <polygon points="241.2 509.9 241.2 471.5 246.6 471.5 246.6 506.1 256.4 506.1 256.4 509.9 241.2 509.9"/>
          <path d="m269.7,509.9v-38.4h8.4c4.1,0,7.1,1,8.8,2.8,1.7,1.9,2.6,4.9,2.6,8.9v14.1c0,4.2-.9,7.4-2.5,9.4-1.7,2.1-4.5,3.1-8.4,3.1l-8.9.1h0Zm5.4-3.8h3c.8,0,1.5-.1,2.1-.2s1.1-.4,1.6-.6c.4-.2.8-.6,1.1-1.1s.5-1,.6-1.4.3-1,.4-1.9c.1-.8.1-1.5.1-2.1v-15c0-.9,0-1.7-.1-2.3,0-.6-.1-1.3-.2-1.9-.1-.6-.2-1.1-.4-1.5s-.4-.8-.7-1.1c-.3-.4-.6-.6-1.1-.8-.4-.2-.9-.3-1.5-.5-.6-.1-1.3-.2-2.1-.2h-2.9v30.6h.1Z"/>
          <polygon points="294.2 509.9 294.2 471.5 309 471.5 309 475.5 299.5 475.5 299.5 488.2 307.3 488.2 307.3 492 299.5 492 299.5 506.1 309.2 506.1 309.2 509.9 294.2 509.9"/>
        </g>
      </g>
      <g>
        <rect x="120.2" y="519.3" width="5.2" height="38.4"/>
        <polygon points="131.2 557.7 131.2 519.3 134.8 519.3 145.7 544.8 145.7 519.3 150.2 519.3 150.2 557.7 146.7 557.7 135.7 531.4 135.7 557.7 131.2 557.7"/>
        <polygon points="162.3 557.7 153.7 519.3 158.7 519.3 164.8 547.5 170.6 519.3 175.5 519.3 167 557.7 162.3 557.7"/>
        <polygon points="179 557.7 179 519.3 193.9 519.3 193.9 523.2 184.4 523.2 184.4 535.9 192.1 535.9 192.1 539.7 184.4 539.7 184.4 553.8 194 553.8 194 557.7 179 557.7"/>
        <path d="m206.8,558.1c-3.2,0-5.7-1-7.4-3s-2.6-4.7-2.9-8.2l4.8-1.3c.4,5.5,2.2,8.2,5.4,8.2,1.4,0,2.4-.4,3.1-1.1.7-.8,1.1-1.9,1.1-3.4,0-.8-.1-1.6-.3-2.2-.2-.7-.5-1.3-.9-1.9-.4-.6-.9-1.1-1.2-1.5-.4-.4-1-1-1.7-1.6l-6.4-5.7c-1.3-1.2-2.2-2.4-2.8-3.7s-.9-2.9-.9-4.8c0-2.8.8-5,2.4-6.5,1.6-1.5,3.8-2.3,6.6-2.4,3.1,0,5.4.7,6.9,2.4,1.5,1.6,2.4,4.2,2.8,7.6l-4.5,1.2c-.1-.8-.1-1.6-.3-2.2-.1-.7-.3-1.3-.5-2s-.6-1.2-.9-1.6c-.4-.4-.8-.7-1.4-1-.6-.2-1.3-.3-2.1-.3-2.8.2-4.2,1.6-4.2,4.2,0,1.1.2,2.1.6,2.8.4.8,1,1.5,1.9,2.4l6.5,5.7c1.7,1.5,3,3.1,4,4.9,1,1.7,1.5,3.7,1.5,5.9,0,2.8-.9,5-2.5,6.7-1.7,1.6-3.9,2.4-6.7,2.4h0Z"/>
        <polygon points="223.6 557.7 223.6 523.2 216.6 523.2 216.6 519.3 235.7 519.3 235.7 523.2 229 523.2 229 557.7 223.6 557.7"/>
        <rect x="238.4" y="519.3" width="5.3" height="38.4"/>
        <path d="m258.4,558.1c-3.5,0-6-1.1-7.6-3.3s-2.3-5.5-2.3-9.8v-12.9c0-1.8.1-3.3.3-4.7.2-1.3.5-2.6,1-3.7.5-1.1,1.1-2,1.9-2.8.8-.7,1.8-1.3,2.9-1.7,1.2-.4,2.6-.6,4.2-.6,3.6,0,6.1.9,7.7,2.7,1.6,1.8,2.3,4.7,2.3,8.5v1.4h-5v-.9c0-1.1,0-2-.1-2.7s-.2-1.4-.4-2-.5-1.1-.8-1.5c-.4-.3-.9-.6-1.4-.8-.6-.2-1.3-.3-2.2-.3-.7,0-1.2.1-1.8.2-.5.2-.9.3-1.3.6-.4.2-.6.6-.9,1s-.4.8-.6,1.2c-.1.4-.2.9-.3,1.6-.1.6-.1,1.2-.1,1.8v16.2c0,2.9.4,5.1,1.1,6.3.7,1.3,2.1,1.9,4.1,1.9s3.4-.7,4.1-2.1c.7-1.4,1.1-3.6,1.1-6.7v-2.7h-4.9v-3.8h9.7v19h-3.4l-.5-4.4c-1.1,3.4-3.4,5.1-6.8,5h0Z"/>
        <path d="m272,557.7l8.2-38.4h5.2l8.2,38.4h-5.1l-1.8-9.7h-7.8l-1.8,9.7h-5.1Zm7.6-13.6h6.4l-3.2-17.4-3.2,17.4h0Z"/>
        <path d="m306.5,558.1c-1.6,0-3-.2-4.2-.7-1.2-.4-2.2-1-3-1.8s-1.4-1.7-1.9-2.8-.8-2.3-1-3.5-.3-2.6-.3-4.1v-13.6c0-1.6.1-3.1.3-4.3.2-1.3.5-2.5,1-3.6s1.1-2,1.9-2.7,1.8-1.3,3-1.7,2.6-.6,4.2-.6c3.5,0,5.9.9,7.4,2.8s2.2,4.6,2.2,8.2v3.1h-5.1v-3.9c0-.3,0-.7-.1-1.2,0-.5-.1-.9-.1-1.2-.1-.3-.1-.6-.2-1-.1-.4-.2-.7-.4-.9-.1-.2-.4-.4-.6-.7-.2-.2-.5-.4-.8-.5s-.6-.2-1.1-.3c-.4-.1-.9-.1-1.3-.1-.8,0-1.4.1-1.9.2-.6.2-1,.4-1.4.8-.4.3-.6.7-.9,1.1-.2.4-.4,1-.5,1.6-.1.7-.2,1.3-.2,1.9s-.1,1.4-.1,2.3v15.2c0,2.9.4,4.9,1.1,6,.7,1.1,2,1.7,3.9,1.7.7,0,1.3-.1,1.8-.2.5-.2.9-.4,1.3-.8.3-.3.6-.7.8-1.1.2-.4.3-.9.4-1.6.1-.7.1-1.3.2-1.8v-5h5.1v2.8c0,1.5-.1,2.8-.3,3.9-.2,1.2-.5,2.2-.9,3.3s-1,1.8-1.8,2.5c-.7.7-1.7,1.2-2.8,1.6-1,.5-2.3.7-3.7.7h0Z"/>
        <rect x="321" y="519.3" width="5.3" height="38.4"/>
        <path d="m341.7,558.1c-1.9,0-3.6-.3-4.9-.9-1.4-.6-2.4-1.4-3.2-2.5s-1.4-2.4-1.8-3.9c-.4-1.5-.6-3.2-.6-5.2v-14.5c0-4,.8-7,2.4-9.1s4.3-3.1,8.1-3.1,6.4,1,8,3.1,2.4,5.1,2.4,9.1v14.6c0,4-.8,7.1-2.5,9.2-1.5,2.1-4.2,3.2-7.9,3.2h0Zm-2.6-4.7c.7.3,1.6.5,2.6.5s1.9-.2,2.6-.5c.7-.3,1.2-.8,1.6-1.5.4-.7.6-1.4.7-2.2s.2-1.8.2-3v-16.8c0-1.2-.1-2.1-.2-2.9s-.4-1.5-.7-2.1-.9-1.1-1.6-1.4c-.7-.3-1.6-.5-2.6-.5s-1.9.2-2.6.5c-.7.3-1.2.8-1.6,1.4-.4.7-.6,1.4-.7,2.1-.1.8-.2,1.7-.2,2.9v16.8c0,1.2.1,2.2.2,3,.1.8.4,1.5.7,2.2.4.7.9,1.2,1.6,1.5Zm1.3-37.3l2.8-9.4h5.1l-5.3,9.4h-2.6Z"/>
        <polygon points="356.9 557.7 356.9 519.3 360.6 519.3 371.5 544.8 371.5 519.3 375.9 519.3 375.9 557.7 372.5 557.7 361.4 531.4 361.4 557.7 356.9 557.7"/>
      </g>
    </g>
  </g>
</svg>