<?xml version="1.0" encoding="UTF-8"?>
<svg height="1064" id="Capa_1" data-name="Capa 1" xmlns="http://www.w3.org/2000/svg" xmlns:xlink="http://www.w3.org/1999/xlink" viewBox="0 0 1275.07 595.87">
  <defs>
    <style>
      .cls-1 {
        stroke-width: 1.3px;
      }

      .cls-1, .cls-2, .cls-3, .cls-4, .cls-5, .cls-6, .cls-7, .cls-8, .cls-9, .cls-10, .cls-11, .cls-12, .cls-13, .cls-14, .cls-15, .cls-16, .cls-17, .cls-18, .cls-19, .cls-20, .cls-21, .cls-22, .cls-23, .cls-24, .cls-25, .cls-26, .cls-27, .cls-28, .cls-29, .cls-30, .cls-31, .cls-32, .cls-33, .cls-34, .cls-35, .cls-36, .cls-37, .cls-38, .cls-39, .cls-40, .cls-41, .cls-42, .cls-43, .cls-44, .cls-45, .cls-46, .cls-47, .cls-48, .cls-49, .cls-50, .cls-51, .cls-52, .cls-53, .cls-54, .cls-55, .cls-56, .cls-57, .cls-58, .cls-59, .cls-60, .cls-61, .cls-62, .cls-63 {
        stroke-miterlimit: 3.86;
      }

      .cls-1, .cls-2, .cls-3, .cls-4, .cls-5, .cls-6, .cls-7, .cls-8, .cls-9, .cls-10, .cls-11, .cls-12, .cls-13, .cls-14, .cls-15, .cls-16, .cls-17, .cls-18, .cls-19, .cls-20, .cls-21, .cls-22, .cls-23, .cls-24, .cls-25, .cls-26, .cls-27, .cls-28, .cls-29, .cls-30, .cls-31, .cls-32, .cls-33, .cls-34, .cls-36, .cls-37, .cls-38, .cls-39, .cls-40, .cls-41, .cls-42, .cls-44, .cls-46, .cls-48, .cls-49, .cls-50, .cls-51, .cls-52, .cls-53, .cls-54, .cls-55, .cls-56, .cls-57, .cls-58, .cls-59, .cls-61, .cls-62 {
        stroke: #1a171b;
      }

      .cls-1, .cls-5, .cls-6, .cls-8, .cls-9, .cls-12, .cls-13, .cls-21, .cls-22, .cls-25, .cls-26, .cls-30, .cls-32, .cls-39, .cls-42, .cls-64, .cls-46, .cls-48, .cls-49, .cls-50, .cls-53, .cls-55, .cls-56, .cls-58, .cls-59 {
        fill: none;
      }

      .cls-2, .cls-3, .cls-4, .cls-65, .cls-17, .cls-27, .cls-38, .cls-66, .cls-41, .cls-60, .cls-61, .cls-62 {
        fill: #a07e00;
      }

      .cls-2, .cls-15, .cls-20, .cls-27, .cls-32, .cls-37, .cls-49, .cls-54, .cls-60 {
        stroke-width: .53px;
      }

      .cls-3, .cls-11, .cls-22, .cls-23, .cls-24, .cls-31, .cls-33, .cls-41, .cls-51, .cls-52 {
        stroke-width: 1.06px;
      }

      .cls-4 {
        stroke-width: .61px;
      }

      .cls-4, .cls-7, .cls-10, .cls-11, .cls-14, .cls-15, .cls-16, .cls-17, .cls-18, .cls-19, .cls-67, .cls-20, .cls-68, .cls-27, .cls-28, .cls-29, .cls-31, .cls-33, .cls-34, .cls-35, .cls-37, .cls-66, .cls-41, .cls-44, .cls-51, .cls-52, .cls-54, .cls-69, .cls-57, .cls-60, .cls-61 {
        fill-rule: evenodd;
      }

      .cls-5, .cls-10, .cls-19, .cls-28, .cls-29, .cls-38, .cls-40, .cls-44, .cls-57, .cls-61 {
        stroke-width: .8px;
      }

      .cls-70 {
        clip-path: url(#clippath-11);
      }

      .cls-6 {
        stroke-width: .93px;
      }

      .cls-7 {
        stroke-width: .55px;
      }

      .cls-7, .cls-67, .cls-24, .cls-34, .cls-51, .cls-54, .cls-57 {
        fill: #b60027;
      }

      .cls-8 {
        stroke-width: .66px;
      }

      .cls-9 {
        stroke-width: 2.13px;
      }

      .cls-10, .cls-68, .cls-33, .cls-37 {
        fill: #006f46;
      }

      .cls-11 {
        fill: #f7cc7e;
      }

      .cls-12 {
        stroke-width: 1.86px;
      }

      .cls-13 {
        stroke-width: 1.99px;
      }

      .cls-14, .cls-71, .cls-20 {
        fill: #1a171b;
      }

      .cls-14, .cls-25 {
        stroke-width: .1px;
      }

      .cls-15, .cls-18, .cls-28, .cls-36, .cls-40 {
        fill: #fff;
      }

      .cls-72 {
        clip-path: url(#clippath-2);
      }

      .cls-73 {
        isolation: isolate;
      }

      .cls-16, .cls-34 {
        stroke-width: 1.24px;
      }

      .cls-16, .cls-44, .cls-52, .cls-69 {
        fill: #0044ae;
      }

      .cls-17, .cls-62 {
        stroke-width: .69px;
      }

      .cls-18, .cls-36, .cls-55 {
        stroke-width: .47px;
      }

      .cls-74 {
        clip-path: url(#clippath-6);
      }

      .cls-19 {
        fill: #d95aaf;
      }

      .cls-21 {
        stroke-width: 2.66px;
      }

      .cls-75 {
        clip-path: url(#clippath-7);
      }

      .cls-76 {
        clip-path: url(#clippath-1);
      }

      .cls-77 {
        clip-path: url(#clippath-4);
      }

      .cls-23, .cls-29, .cls-31, .cls-78 {
        fill: #bababb;
      }

      .cls-26 {
        stroke-width: 1.73px;
      }

      .cls-30 {
        stroke-width: .16px;
      }

      .cls-32 {
        stroke-linecap: round;
      }

      .cls-35 {
        fill: #f7e017;
        stroke: #f7e017;
      }

      .cls-35, .cls-45, .cls-47, .cls-63 {
        stroke-width: 4.58px;
      }

      .cls-39 {
        stroke-width: 1.04px;
      }

      .cls-79 {
        clip-path: url(#clippath-9);
      }

      .cls-80 {
        clip-path: url(#clippath);
      }

      .cls-42 {
        stroke-width: 2.26px;
      }

      .cls-43 {
        fill: #f7d117;
        stroke: #f7d117;
        stroke-width: 3.15px;
      }

      .cls-81 {
        clip-path: url(#clippath-3);
      }

      .cls-45 {
        fill: #164194;
        stroke: #164194;
      }

      .cls-82 {
        clip-path: url(#clippath-8);
      }

      .cls-46 {
        stroke-width: 1.46px;
      }

      .cls-47 {
        fill: #ae1519;
        stroke: #ae1519;
      }

      .cls-48 {
        stroke-width: .21px;
      }

      .cls-50 {
        stroke-width: 1.6px;
      }

      .cls-83 {
        clip-path: url(#clippath-5);
      }

      .cls-53 {
        stroke-width: .44px;
      }

      .cls-56 {
        stroke-width: 1.17px;
      }

      .cls-84 {
        clip-path: url(#clippath-10);
      }

      .cls-58 {
        stroke-width: 1.33px;
      }

      .cls-59 {
        stroke-width: 1.2px;
      }

      .cls-60 {
        stroke: #a07e00;
      }

      .cls-63 {
        fill: #fbbe00;
        stroke: #fbbe00;
      }
    </style>
    <clipPath id="clippath">
      <circle class="cls-64" cx="347.39" cy="203.08" r="1.9"/>
    </clipPath>
    <clipPath id="clippath-1">
      <path class="cls-64" d="m347.39,231.78c-5,0-9.6-.5-13.1-1.4,3.5-.9,8-1.5,13.1-1.5s9.6.6,13.1,1.5c-3.5.9-8,1.4-13.1,1.4Z"/>
    </clipPath>
    <clipPath id="clippath-2">
      <rect class="cls-64" x="330.59" y="259.18" width="33.7" height="174.1"/>
    </clipPath>
    <clipPath id="clippath-3">
      <path class="cls-64" d="m656.39,231.78c-5,0-9.6-.5-13.1-1.4,3.5-.9,8-1.5,13.1-1.5s9.6.6,13.1,1.5c-3.5.9-8,1.4-13.1,1.4Z"/>
    </clipPath>
    <clipPath id="clippath-4">
      <circle class="cls-64" cx="656.39" cy="205.08" r="1.9"/>
    </clipPath>
    <clipPath id="clippath-5">
      <rect class="cls-64" x="639.69" y="259.18" width="33.7" height="174.1"/>
    </clipPath>
    <clipPath id="clippath-6">
      <path class="cls-64" d="m500.69,136.78c13.8,0,26,2.1,34,5.5,4.6,2.2,10.7,3.8,17.4,4.7,5.1.7,10,.9,14.2.5,5.6-.1,13.8,1.6,22,5.4,6.8,3.1,12.4,7,16.2,10.8l-3.2,3.1-.9,8.7-8.9,10.8-4.5,4-10.5,8.9-5.4.5-1.6,4.9-68.2-8.4-68.4,8.4-1.6-4.9-5.4-.5-10.5-8.9-4.5-4-8.9-10.8-.9-8.7-3.2-3.1c3.8-3.7,9.4-7.6,16.2-10.8,8.2-3.8,16.3-5.6,22-5.4,4.2.3,9.1.2,14.2-.5,6.7-.9,12.8-2.6,17.4-4.7,7.7-3.4,19.2-5.5,33-5.5h0Z"/>
    </clipPath>
    <clipPath id="clippath-7">
      <rect class="cls-64" x="406.29" y="169.67" width="187.1" height="33.3"/>
    </clipPath>
    <clipPath id="clippath-8">
      <path class="cls-64" d="m501.69,228.28c-22.9,0-43.6-2.8-59.4-7.1,15.8-4.3,36.5-6.9,59.4-7,22.9,0,43.8,2.7,59.5,7-15.8,4.3-36.6,7.1-59.5,7.1h0Z"/>
    </clipPath>
    <clipPath id="clippath-9">
      <circle class="cls-64" cx="501.49" cy="103.07" r="9.2"/>
    </clipPath>
    <clipPath id="clippath-10">
      <circle class="cls-64" cx="501.39" cy="103.38" r="9.2"/>
    </clipPath>
    <clipPath id="clippath-11">
      <path class="cls-64" d="m502.09,425.08c0,28.8-23.1,52.1-51.9,52.1s-52.1-23.3-52.1-52.1v-72.9h104v72.9Z"/>
    </clipPath>
  </defs>
  <g id="_레이어_1" data-name=" 레이어 1">
    <g>
      <g>
        <rect class="cls-47" x="106.19" y="2.38" width="104" height="591.2"/>
        <rect class="cls-63" x="106.19" y="150.17" width="104" height="295.6"/>
      </g>
      <rect class="cls-43" x="210.89" y="1.58" width="1062.6" height="592.7"/>
      <g class="cls-73">
        <path class="cls-71" d="m822.69,257.18h17.2v21.5c-6.3,2.7-12.5,4.1-18.8,4.1-8.5,0-15.2-2.4-20.3-7.3s-7.6-10.9-7.6-18.1c0-7.6,2.6-13.9,7.9-18.9,5.2-5,11.8-7.5,19.7-7.5,2.9,0,5.6.3,8.2.9,2.6.6,5.9,1.7,9.8,3.4v7.4c-6.1-3.5-12.2-5.3-18.2-5.3-5.6,0-10.3,1.9-14.1,5.7s-5.7,8.4-5.7,13.9c0,5.8,1.9,10.5,5.7,14.1,3.8,3.7,8.8,5.5,14.8,5.5,2.9,0,6.4-.7,10.5-2l.7-.2v-10.6h-9.9v-6.6h.1Z"/>
        <path class="cls-71" d="m875.59,230.78c7.9,0,14.5,2.5,19.7,7.4,5.3,5,7.9,11.2,7.9,18.6s-2.7,13.7-8,18.5c-5.3,4.9-12,7.3-20.1,7.3s-14.1-2.4-19.3-7.3c-5.1-4.9-7.7-11-7.7-18.4s2.6-13.8,7.8-18.8c5.3-4.9,11.8-7.3,19.7-7.3Zm.3,6.9c-5.9,0-10.7,1.8-14.4,5.4s-5.7,8.3-5.7,13.9,1.9,10,5.7,13.6,8.5,5.4,14.2,5.4,10.5-1.8,14.3-5.5,5.7-8.3,5.7-13.8-1.9-9.9-5.7-13.5c-3.8-3.7-8.5-5.5-14.1-5.5Z"/>
        <path class="cls-71" d="m929.59,282.08h-17.3v-50.7h13.4c4.2,0,7.5.6,9.9,1.7,2.4,1.1,4.2,2.7,5.4,4.6,1.2,2,1.9,4.2,1.9,6.8,0,5-2.6,8.5-7.8,10.7,3.7.7,6.7,2.2,8.9,4.6,2.2,2.3,3.3,5.1,3.3,8.4,0,2.6-.7,4.9-2,6.9s-3.3,3.7-5.9,5c-2.6,1.4-5.9,2-9.8,2Zm-3.7-44.2h-6.3v15.2h4.9c3.9,0,6.7-.7,8.3-2.2s2.5-3.4,2.5-5.7c0-4.8-3.1-7.3-9.4-7.3Zm.6,21.7h-6.8v16.1h7.2c4,0,6.7-.3,8.1-.9,1.4-.6,2.6-1.6,3.4-2.9.9-1.3,1.3-2.7,1.3-4.2s-.5-3-1.4-4.2-2.2-2.2-3.9-2.9c-1.6-.7-4.3-1-7.9-1Z"/>
        <path class="cls-71" d="m954.59,231.48h7.3v50.7h-7.3v-50.7Z"/>
        <path class="cls-71" d="m973.29,231.48h29v6.5h-21.7v15.4h20.9v6.5h-20.9v15.7h22.4v6.5h-29.7v-50.6Z"/>
        <path class="cls-71" d="m1010.99,282.08v-50.7h12.8c5.2,0,9.3,1.3,12.3,3.8s4.6,6,4.6,10.3c0,2.9-.7,5.5-2.2,7.7s-3.6,3.8-6.4,4.8c1.6,1.1,3.2,2.5,4.8,4.4s3.8,5,6.6,9.6c1.8,2.9,3.2,5,4.3,6.5l2.7,3.6h-8.7l-2.2-3.3c-.1-.1-.2-.3-.4-.6l-1.4-2-2.3-3.7-2.5-4c-1.5-2.1-2.9-3.7-4.2-5s-2.4-2.1-3.4-2.7c-1-.5-2.7-.8-5.1-.8h-1.9v22h-7.4v.1Zm9.5-44.4h-2.2v16h2.8c3.7,0,6.3-.3,7.6-.9,1.4-.6,2.5-1.6,3.2-2.8.8-1.3,1.2-2.7,1.2-4.3s-.4-3-1.3-4.3-2.1-2.2-3.6-2.7c-1.5-.8-4.1-1-7.7-1Z"/>
        <path class="cls-71" d="m1096.69,231.48h7v50.7h-6.3l-34.2-39v39h-6.9v-50.7h5.9l34.5,39.3v-39.3Z"/>
        <path class="cls-71" d="m1139.69,230.78c7.9,0,14.5,2.5,19.7,7.4,5.3,5,7.9,11.2,7.9,18.6s-2.7,13.7-8,18.5c-5.3,4.9-12,7.3-20.1,7.3s-14.1-2.4-19.3-7.3c-5.1-4.9-7.7-11-7.7-18.4s2.6-13.8,7.8-18.8c5.3-4.9,11.8-7.3,19.7-7.3Zm.3,6.9c-5.9,0-10.7,1.8-14.4,5.4-3.8,3.6-5.7,8.3-5.7,13.9s1.9,10,5.7,13.6,8.5,5.4,14.2,5.4,10.5-1.8,14.3-5.5,5.7-8.3,5.7-13.8-1.9-9.9-5.7-13.5c-3.8-3.7-8.5-5.5-14.1-5.5Z"/>
      </g>
      <g class="cls-73">
        <path class="cls-71" d="m795.09,358.68v-50.6h17.2c7,0,12.5,1,16.5,3.1,4.1,2.1,7.3,5.1,9.7,9.1s3.6,8.4,3.6,13.1c0,3.4-.7,6.6-2,9.7s-3.2,5.8-5.6,8.2c-2.5,2.4-5.4,4.2-8.7,5.5-1.9.7-3.7,1.3-5.3,1.5s-4.7.4-9.2.4h-16.2Zm16.5-44.2h-9.2v37.7h9.4c3.7,0,6.5-.2,8.5-.7s3.7-1.1,5.1-1.9c1.4-.8,2.6-1.7,3.7-2.8,3.6-3.6,5.4-8.2,5.4-13.7s-1.9-9.9-5.6-13.3c-1.4-1.3-2.9-2.3-4.7-3.2-1.8-.8-3.4-1.4-5-1.6-1.6-.3-4.1-.5-7.6-.5Z"/>
        <path class="cls-71" d="m851.29,308.08h29v6.5h-21.7v15.4h20.9v6.5h-20.9v15.7h22.4v6.5h-29.7v-50.6Z"/>
        <path class="cls-71" d="m909.59,308.08h29v6.5h-21.7v15.4h20.9v6.5h-20.9v15.7h22.4v6.5h-29.7v-50.6Z"/>
        <path class="cls-71" d="m959.79,337.48l-5.6-3.3c-3.5-2.1-6-4.2-7.5-6.2s-2.2-4.4-2.2-7.1c0-4,1.4-7.2,4.2-9.7s6.4-3.7,10.9-3.7,8.2,1.2,11.8,3.6v8.2c-3.7-3.5-7.7-5.3-11.9-5.3-2.4,0-4.4.5-5.9,1.6s-2.3,2.5-2.3,4.2c0,1.5.6,2.9,1.7,4.3,1.1,1.3,3,2.7,5.5,4.2l5.6,3.3c6.2,3.7,9.4,8.4,9.4,14.1,0,4.1-1.4,7.4-4.1,9.9-2.7,2.5-6.3,3.8-10.7,3.8-5.1,0-9.7-1.5-13.8-4.6v-9.2c4,5,8.5,7.4,13.7,7.4,2.3,0,4.2-.6,5.7-1.9s2.3-2.8,2.3-4.8c-.1-3.1-2.3-6-6.8-8.8Z"/>
      </g>
      <g class="cls-73">
        <path class="cls-71" d="m981.09,358.77v-50.8h16.2c4.9,0,8.8,1.3,11.7,3.9s4.4,6.1,4.4,10.5c0,2.9-.7,5.6-2.2,7.8-1.5,2.3-3.5,3.9-6.1,4.9s-6.3,1.5-11.1,1.5h-5.4v22h-7.5v.2Zm14.9-44.3h-7.6v15.8h8c3,0,5.3-.7,6.9-2.1,1.6-1.4,2.4-3.4,2.4-6,0-5.1-3.2-7.7-9.7-7.7Z"/>
      </g>
      <g class="cls-73">
        <path class="cls-71" d="m1030.89,307.77h5.1l22.9,50.9h-7.5l-6.8-15h-21.8l-6.4,15h-7.5l22-50.9Zm10.8,29.5l-8.3-18.3-7.7,18.3h16Z"/>
        <path class="cls-71" d="m1105.29,308.08h7v50.7h-6.3l-34.2-39v39h-6.9v-50.7h5.9l34.5,39.3v-39.3Zm-5.1-13.8c0,2.9-.7,5.2-2.1,6.9-1,1.3-2.3,1.9-3.8,1.9-1.3,0-3.1-.5-5.4-1.5s-4-1.5-5.1-1.5c-.6,0-1.2.2-1.6.7s-.7,1.2-.8,2.2h-3.1c.4-3.4,1.1-5.7,2.1-6.8,1-1.1,2.3-1.7,3.9-1.7,1.4,0,3.7.6,6.9,1.9,1.6.7,2.8,1,3.5,1s1.3-.2,1.7-.7c.5-.5.8-1.3,1-2.4h2.8Z"/>
        <path class="cls-71" d="m1139.49,307.77h5.1l22.9,50.9h-7.5l-6.8-15h-21.8l-6.4,15h-7.5l22-50.9Zm10.8,29.5l-8.3-18.3-7.7,18.3h16Z"/>
      </g>
      <rect class="cls-45" x="2.29" y="2.38" width="103.9" height="591.2"/>
      <g>
        <polygon class="cls-35" points="85.59 216.78 64.99 200.98 44.49 216.78 52.29 191.17 31.79 175.28 57.19 175.28 64.99 149.67 72.89 175.28 98.29 175.28 77.69 191.17 85.59 216.78"/>
        <polygon class="cls-35" points="65.09 334.77 44.49 318.98 23.99 334.77 31.79 309.18 11.19 293.27 36.69 293.27 44.49 267.68 52.39 293.27 77.79 293.27 57.19 309.18 65.09 334.77"/>
        <polygon class="cls-35" points="87.89 461.87 67.29 445.98 46.69 461.87 54.59 436.18 33.99 420.37 59.39 420.37 67.29 394.68 75.19 420.37 100.59 420.37 79.99 436.18 87.89 461.87"/>
      </g>
      <g>
        <g>
          <path class="cls-54" d="m331.49,223.17s-1.1,0-1.6-.4c-.6-.4-2.4-2.1-2.4-2.1l-1.4-1.1-1.3-1.9s-1.5-2.6-.8-4.6,1.9-2.7,2.9-3.3,3.3-1.3,3.3-1.3c0,0,1.8-.8,2.3-.9.6-.1,2.7-.7,2.7-.7,0,0,.6-.4,1.2-.6.6-.2,1.4-.2,1.9-.4.5-.1,1.6-.5,2.3-.6,1.1-.1,2.8.2,3.4.2s2.6.1,3.4.1,3.8-.2,4.6-.2,1.4-.1,2.3,0,2.6.7,3,.9c.5.2,3.3,1.3,4.3,1.6,1.1.4,3.6.8,4.8,1.4s1.9,1.6,2.5,2.4c.6.8.7,1.7.9,2.3.2.6.2,1.9,0,2.4-.2.6-1.1,1.8-1.1,1.8l-1.3,2.2-1.6,1.4s-1.2,1.2-2.1,1.1c-.9-.1-10.4-1.9-16.5-1.9s-15.7,2.2-15.7,2.2h0Z"/>
          <path class="cls-27" d="m344.49,208.87c0-3,1.3-5.4,2.9-5.4s2.9,2.4,2.9,5.4-1.3,5.5-2.9,5.5-2.9-2.5-2.9-5.5Z"/>
          <path class="cls-27" d="m346.09,208.87c0-2.8.6-5,1.3-5s1.3,2.2,1.3,5-.6,5-1.3,5-1.3-2.3-1.3-5Z"/>
          <g>
            <path class="cls-66" d="m345.49,203.08c0-1.1.9-1.9,1.9-1.9s1.9.9,1.9,1.9-.9,1.9-1.9,1.9-1.9-.8-1.9-1.9Z"/>
            <polygon class="cls-4" points="348.79 202.37 348.79 203.67 345.79 203.67 345.79 202.37 346.79 202.37 346.79 199.58 345.49 199.58 345.49 198.28 346.79 198.28 346.79 196.98 348.09 196.98 348.09 198.28 349.29 198.28 349.29 199.58 348.09 199.58 348.09 202.37 348.79 202.37"/>
            <g class="cls-80">
              <polygon class="cls-4" points="350.09 202.37 350.09 203.67 344.89 203.67 344.89 202.37 346.79 202.37 346.79 199.58 345.49 199.58 345.49 198.28 346.79 198.28 346.79 196.98 348.09 196.98 348.09 198.28 349.29 198.28 349.29 199.58 348.09 199.58 348.09 202.37 350.09 202.37"/>
            </g>
            <path class="cls-64" d="m345.49,203.08c0-1.1.9-1.9,1.9-1.9s1.9.9,1.9,1.9-.9,1.9-1.9,1.9-1.9-.8-1.9-1.9Z"/>
            <path class="cls-64" d="m345.49,203.08c0-1.1.9-1.9,1.9-1.9s1.9.9,1.9,1.9-.9,1.9-1.9,1.9-1.9-.8-1.9-1.9Z"/>
            <path class="cls-49" d="m347.99,201.28c.8.2,1.4,1,1.4,1.8,0,1.1-.9,1.9-1.9,1.9s-1.9-.9-1.9-1.9c0-.9.6-1.6,1.4-1.9"/>
          </g>
          <path class="cls-27" d="m347.49,222.87h-10l-.2-2.6-.5-2.7-.5-3.4c-2.8-3.8-5.3-6.3-6.1-5.8.2-.7.5-1.2,1-1.6,2.4-1.5,7.5,2.1,11.2,8.2.3.6.7,1.1,1,1.6h8.2c.3-.6.6-1.1,1-1.6,3.8-6.1,8.8-9.7,11.2-8.2.5.3.8.9,1,1.6-.9-.5-3.4,2-6.1,5.8l-.5,3.4-.5,2.7-.2,2.6h-10Z"/>
          <path class="cls-49" d="m330.59,208.37c1.9-1.2,6.2,2.5,9.8,8.2"/>
          <path class="cls-49" d="m364.29,208.37c-1.9-1.2-6.2,2.5-9.8,8.2"/>
          <path class="cls-27" d="m332.69,227.58c-.4-1.2-1.2-2.4-1.2-2.4,4-1.3,9.6-2,15.9-2.1,6.2,0,11.9.8,15.9,2.1,0,0-.5.8-1.1,2-.4.6-.8,1.8-.8,1.8-3.6-1.2-8.3-1.8-14.1-1.8s-11.3.8-14.2,1.9c.1,0-.1-.7-.4-1.5h0Z"/>
          <path class="cls-27" d="m347.39,232.98c5,0,10.6-.8,12.6-1.4,1.4-.4,2.2-1.1,2-1.8-.1-.4-.4-.7-.8-.8-3-1-8.4-1.7-13.9-1.8-5.5,0-10.9.7-13.9,1.8-.4.2-.7.5-.8.8-.1.8.6,1.4,2,1.8,2.2.6,7.8,1.4,12.8,1.4h0Z"/>
          <path class="cls-27" d="m363.59,222.87l-1.2-1.2s-1.2.8-2.6.5-1.9-2.1-1.9-2.1c0,0-1.6,1.5-3,1.3-1.4-.1-2.2-1.3-2.2-1.3,0,0-1.5,1.1-2.8,1s-2.5-1.8-2.5-1.8c0,0-1.3,1.8-2.6,1.9-1.3.1-2.3-1.2-2.3-1.2,0,0-.6,1.3-2.2,1.6s-3-1.4-3-1.4c0,0-.9,1.6-2,2s-2.6-.6-2.6-.6c0,0-.2.6-.4.9-.2.4-.6.4-.6.4l.4,1c4-1.2,9.5-2,15.6-2s11.8.8,15.8,2l.1-1h0Z"/>
          <path class="cls-27" d="m347.49,217.17l.6.1c-.1.2-.1.5-.1.8,0,1.3,1,2.3,2.3,2.3,1,0,1.9-.7,2.2-1.6,0,0,.2-.8.3-.8s.1.9.1.9c.1,1.2,1.1,1.9,2.3,1.9,1.3,0,2.3-1,2.3-2.3v-.3l.7-.8.4,1c-.1.3-.2.6-.2,1,0,1.2,1,2.2,2.2,2.2.8,0,1.4-.4,1.8-1l.5-.6v.8c0,.8.3,1.4,1,1.6,0,0,.8.1,1.9-.8,1.1-.9,1.7-1.6,1.7-1.6l.1.9s-1.1,1.8-2,2.4c-.5.3-1.3.7-2,.6-.7-.1-1.1-.7-1.4-1.3-.5.3-1,.5-1.6.5-1.3,0-2.5-.8-2.9-1.9-.6.7-1.4,1.1-2.4,1.1s-2-.5-2.6-1.3c-.6.6-1.4.9-2.3.9-1.2,0-2.2-.6-2.8-1.5-.6.9-1.6,1.5-2.8,1.5-.9,0-1.7-.4-2.3-.9-.6.8-1.5,1.3-2.6,1.3-1,0-1.8-.4-2.4-1.1-.5,1.1-1.6,1.9-2.9,1.9-.6,0-1.2-.2-1.6-.5-.2.7-.7,1.2-1.4,1.3-.6.1-1.4-.2-2-.6-1-.6-2.1-2.4-2.1-2.4l.1-.9s.6.7,1.7,1.6,1.9.8,1.9.8c.7-.1,1-.8,1-1.6v-.8l.5.6c.4.6,1.1,1,1.8,1,1.2,0,2.2-1,2.2-2.2,0-.4-.1-.7-.2-1l.4-1,.7.8v.3c0,1.3,1,2.3,2.3,2.3,1.1,0,2.1-.8,2.3-1.9,0,0,0-.9.1-.9s.3.9.3.8c.3.9,1.2,1.6,2.2,1.6,1.3,0,2.3-1,2.3-2.3,0-.3,0-.6-.1-.8l.5-.1h0Z"/>
          <path class="cls-27" d="m347.39,223.17c-6.2,0-11.9.8-15.9,2.1-.3.1-.6-.1-.7-.4-.1-.3.1-.6.4-.7,4-1.3,9.8-2.1,16.2-2.1s12.2.8,16.2,2.1c.3.1.5.4.4.7s-.4.5-.7.4c-4-1.3-9.6-2.1-15.9-2.1h0Z"/>
          <path class="cls-15" d="m341.39,225.48c0-.5.4-.9.9-.9s.9.4.9.9-.4.9-.9.9-.9-.4-.9-.9Z"/>
          <path class="cls-54" d="m347.49,225.87h-2c-.4,0-.7-.3-.7-.7s.3-.7.7-.7h4.1c.4,0,.7.3.7.7s-.3.7-.7.7h-2.1Z"/>
          <path class="cls-37" d="m337.49,226.58l-1.4.2c-.4.1-.7-.2-.8-.6-.1-.4.2-.7.6-.8l1.5-.2,1.5-.2c.4-.1.7.2.8.6s-.2.7-.6.8l-1.6.2h0Z"/>
          <polygon class="cls-54" points="331.59 227.67 332.29 226.58 333.69 226.87 332.89 228.08 331.59 227.67"/>
          <path class="cls-15" d="m351.69,225.48c0-.5.4-.9.9-.9s.9.4.9.9-.4.9-.9.9-.9-.4-.9-.9Z"/>
          <path class="cls-37" d="m357.39,226.58l1.4.2c.4.1.7-.2.8-.6s-.2-.7-.6-.8l-1.5-.2-1.5-.2c-.4-.1-.7.2-.8.6s.2.7.6.8l1.6.2h0Z"/>
          <polygon class="cls-54" points="363.09 227.78 362.59 226.58 361.19 226.78 361.89 228.08 363.09 227.78"/>
          <g>
            <path class="cls-67" d="m347.39,231.78c-5,0-9.6-.5-13.1-1.4,3.5-.9,8-1.5,13.1-1.5s9.6.6,13.1,1.5c-3.5.9-8,1.4-13.1,1.4Z"/>
            <g class="cls-76">
              <g>
                <line class="cls-49" x1="351.49" y1="225.98" x2="351.49" y2="234.28"/>
                <line class="cls-8" x1="349.49" y1="225.98" x2="349.49" y2="234.28"/>
                <line class="cls-5" x1="347.69" y1="225.98" x2="347.69" y2="234.28"/>
                <line class="cls-5" x1="345.99" y1="225.98" x2="345.99" y2="234.28"/>
                <line class="cls-5" x1="344.49" y1="225.98" x2="344.49" y2="234.28"/>
                <line class="cls-5" x1="343.09" y1="225.98" x2="343.09" y2="234.28"/>
                <line class="cls-6" x1="341.79" y1="225.98" x2="341.79" y2="234.28"/>
                <line class="cls-39" x1="340.39" y1="225.98" x2="340.39" y2="234.28"/>
                <line class="cls-39" x1="339.09" y1="225.98" x2="339.09" y2="234.28"/>
                <line class="cls-56" x1="337.79" y1="225.98" x2="337.79" y2="234.28"/>
                <line class="cls-1" x1="336.19" y1="225.98" x2="336.19" y2="234.28"/>
              </g>
            </g>
            <path class="cls-49" d="m347.39,231.78c-5,0-9.6-.5-13.1-1.4,3.5-.9,8-1.5,13.1-1.5s9.6.6,13.1,1.5c-3.5.9-8,1.4-13.1,1.4Z"/>
          </g>
          <path class="cls-27" d="m363.29,220.17c.1-.4,0-.8-.3-.9s-.6.2-.8.6,0,.8.3.9.7-.1.8-.6Z"/>
          <path class="cls-27" d="m353.29,218.17c0-.4-.1-.8-.4-.8s-.6.3-.6.7.1.8.4.8.5-.3.6-.7h0Z"/>
          <path class="cls-27" d="m341.59,218.17c0-.4.1-.8.4-.8s.6.3.6.7-.1.8-.4.8c-.2,0-.5-.3-.6-.7h0Z"/>
          <path class="cls-27" d="m331.59,220.17c-.1-.4,0-.8.3-.9s.6.2.8.6,0,.8-.3.9-.7-.1-.8-.6Z"/>
          <g>
            <polygon class="cls-27" points="347.39 212.08 345.59 213.17 346.99 216.17 347.39 216.58 347.89 216.17 349.19 213.17 347.39 212.08"/>
            <polygon class="cls-27" points="343.49 216.58 344.29 217.87 347.09 216.98 347.39 216.58 347.09 216.17 344.29 215.28 343.49 216.58"/>
            <polygon class="cls-27" points="351.29 216.58 350.49 217.87 347.79 216.98 347.49 216.58 347.79 216.17 350.49 215.28 351.29 216.58"/>
          </g>
          <g>
            <polygon class="cls-27" points="335.89 213.37 334.49 214.78 336.19 217.28 336.69 217.48 337.09 217.08 337.69 214.08 335.89 213.37"/>
            <polygon class="cls-27" points="332.89 218.37 333.99 219.37 336.49 217.98 336.69 217.48 336.29 217.17 333.49 216.87 332.89 218.37"/>
            <polygon class="cls-27" points="340.59 216.78 339.99 218.17 337.09 217.87 336.79 217.48 336.99 217.08 339.49 215.58 340.59 216.78"/>
          </g>
          <polygon class="cls-27" points="330.09 218.78 329.89 220.17 326.99 220.58 326.59 220.28 326.69 219.78 328.89 217.87 330.09 218.78"/>
          <path class="cls-27" d="m335.69,217.48c0-.6.5-1,1-1s1,.4,1,1-.5,1-1,1-1-.4-1-1Z"/>
          <g>
            <polygon class="cls-27" points="358.99 213.37 360.39 214.78 358.59 217.28 358.19 217.48 357.79 217.08 357.19 214.08 358.99 213.37"/>
            <polygon class="cls-27" points="361.99 218.37 360.89 219.37 358.39 217.98 358.19 217.48 358.49 217.17 361.49 216.87 361.99 218.37"/>
            <polygon class="cls-27" points="354.29 216.78 354.89 218.17 357.79 217.87 358.09 217.48 357.89 217.08 355.39 215.58 354.29 216.78"/>
          </g>
          <polygon class="cls-27" points="364.39 218.78 364.59 220.17 367.49 220.58 367.89 220.28 367.79 219.78 365.59 217.87 364.39 218.78"/>
          <path class="cls-27" d="m346.39,216.58c0-.6.5-1,1-1s1,.5,1,1-.5,1-1,1-1-.5-1-1Z"/>
          <path class="cls-27" d="m357.09,217.48c0-.6.5-1,1-1s1,.4,1,1-.5,1-1,1-1-.4-1-1Z"/>
          <path class="cls-2" d="m326.19,220.48s-.8-1.1-1.4-1.6c-.4-.4-1.4-.7-1.4-.7,0-.2.6-.6,1.2-.6.4,0,.7.2.9.4l.1-.4s.5.1.7.7.1,1.6.1,1.6c0,0,0,.4-.2.6h0Z"/>
          <path class="cls-27" d="m326.29,219.98c.2-.3.7-.2,1.1.1s.5.8.2,1.1c-.2.3-.7.2-1.1-.1-.4-.4-.5-.9-.2-1.1Z"/>
          <path class="cls-2" d="m368.29,220.48s.8-1.1,1.4-1.6c.4-.4,1.4-.7,1.4-.7,0-.2-.6-.6-1.2-.6-.4,0-.7.2-.9.4l-.1-.4s-.5.1-.7.7c-.2.6-.1,1.6-.1,1.6,0,0,0,.4.2.6h0Z"/>
          <path class="cls-27" d="m368.29,219.98c-.2-.3-.7-.2-1.1.1s-.5.8-.2,1.1c.2.3.7.2,1.1-.1.3-.4.4-.9.2-1.1Z"/>
        </g>
        <g>
          <rect class="cls-38" x="324.49" y="232.58" width="46.2" height="12.8"/>
          <path class="cls-61" d="m329.29,253.87c.3-.1.5-.1.9-.1h34.6c.3,0,.7.1,1,.2-1.2-.4-2-1.6-2-2.9s.9-2.5,2.1-2.9c-.3.1-.7.2-1,.2h-34.6c-.4,0-.7,0-1-.1h.2c1.2.4,1.9,1.6,1.9,2.8s-.8,2.4-2.1,2.8h0Z"/>
          <path class="cls-61" d="m330.19,253.67h34.6c1.2,0,2.1.8,2.1,1.7h0c0,.9-.9,1.7-2.1,1.7h-34.6c-1.2,0-2.1-.8-2.1-1.7h0c-.1-.9.9-1.7,2.1-1.7h0Z"/>
          <path class="cls-61" d="m330.19,245.37h34.6c1.2,0,2.1.6,2.1,1.4h0c0,.8-1,1.4-2.1,1.4h-34.6c-1.2,0-2.1-.6-2.1-1.4h0c-.1-.8.9-1.4,2.1-1.4Z"/>
        </g>
        <g>
          <path class="cls-44" d="m379.79,460.37c-3.2,0-6-.7-8.1-1.9-2.1-1.1-4.9-1.8-8-1.8s-6,.7-8.1,1.8c-2.1,1.1-5,1.9-8.1,1.9s-6-.8-8.1-2c-2.1-1.1-4.8-1.7-7.9-1.7s-5.9.6-8,1.8c-2.1,1.2-5,1.9-8.2,1.9v5.3c3.2,0,6.1-.8,8.2-1.9s4.9-1.8,8-1.8,5.8.7,7.9,1.7c2.1,1.2,5,2,8.1,2s6-.7,8.1-1.9c2.1-1.1,5-1.8,8.1-1.8s5.9.7,8,1.8c2.1,1.2,4.9,1.9,8.1,1.9v-5.3Z"/>
          <path class="cls-29" d="m379.79,465.58c-3.2,0-6-.7-8.1-1.9-2.1-1.1-4.9-1.8-8-1.8s-6,.7-8.1,1.8c-2.1,1.1-5,1.9-8.1,1.9s-6-.8-8.1-2c-2.1-1.1-4.8-1.7-7.9-1.7s-5.9.6-8,1.8c-2.1,1.2-5,1.9-8.2,1.9v5.3c3.2,0,6.1-.8,8.2-1.9s4.9-1.8,8-1.8,5.8.7,7.9,1.7c2.1,1.2,5,2,8.1,2s6-.7,8.1-1.9c2.1-1.1,5-1.8,8.1-1.8s5.9.7,8,1.8c2.1,1.2,4.9,1.9,8.1,1.9v-5.3Z"/>
          <path class="cls-44" d="m379.79,470.87c-3.2,0-6-.7-8.1-1.9-2.1-1.1-4.9-1.8-8-1.8s-6,.7-8.1,1.8c-2.1,1.1-5,1.9-8.1,1.9s-6-.8-8.1-2c-2.1-1.1-4.8-1.7-7.9-1.7s-5.9.6-8,1.8c-2.1,1.2-5,1.9-8.2,1.9v5.3c3.2,0,6.1-.8,8.2-1.9s4.9-1.8,8-1.8,5.8.7,7.9,1.7c2.1,1.2,5,2,8.1,2s6-.7,8.1-1.9c2.1-1.1,5-1.8,8.1-1.8s5.9.7,8,1.8c2.1,1.2,4.9,1.9,8.1,1.9v-5.3h0Z"/>
          <path class="cls-29" d="m379.69,481.37c-3.2,0-6-.7-8.1-1.9-2.1-1.1-4.9-1.8-8-1.8s-6,.7-8.1,1.8c-2.1,1.1-5,1.9-8.1,1.9s-6-.8-8.1-2c-2.1-1.1-4.8-1.7-7.9-1.7s-5.9.6-8,1.8c-2.1,1.2-5,1.9-8.2,1.9v-5.2c3.2,0,6.1-.8,8.2-2,2.1-1.1,4.9-1.8,8-1.8s5.8.7,7.9,1.7c2.1,1.2,5,2,8.1,2s6-.7,8.1-1.9c2.1-1.1,5-1.8,8.1-1.8s5.9.7,8,1.8c2.1,1.2,4.9,1.9,8.1,1.9v5.3h0Z"/>
          <path class="cls-44" d="m379.69,486.68c-3.2,0-6-.7-8.1-1.9-2.1-1.1-4.9-1.8-8-1.8s-6,.7-8.1,1.8c-2.1,1.1-5,1.9-8.1,1.9s-6-.8-8.1-2c-2.1-1.1-4.8-1.7-7.9-1.7s-5.9.6-8,1.8c-2.1,1.2-5,1.9-8.2,1.9v-5.2c3.2,0,6.1-.8,8.2-2,2.1-1.1,4.9-1.8,8-1.8s5.8.7,7.9,1.7c2.1,1.2,5,2,8.1,2s6-.7,8.1-1.9c2.1-1.1,5-1.8,8.1-1.8s5.9.7,8,1.8c2.1,1.2,4.9,1.9,8.1,1.9v5.3Z"/>
        </g>
        <g>
          <path class="cls-61" d="m329.29,438.68c.1.4.3.9.3,1.4,0,3.2-2.6,5.8-5.8,5.8h47.5c-3.2,0-5.8-2.6-5.8-5.8,0-.5.1-.9.2-1.4-.3.1-.6.1-.9.1h-34.6c-.3,0-.6,0-.9-.1Z"/>
          <path class="cls-61" d="m330.19,435.37h34.6c1.2,0,2.1.8,2.1,1.7h0c0,1-.9,1.7-2.1,1.7h-34.6c-1.2,0-2.1-.8-2.1-1.7h0c-.1-.9.9-1.7,2.1-1.7Z"/>
          <rect class="cls-38" x="323.79" y="445.77" width="47.4" height="12.7"/>
        </g>
        <path class="cls-57" d="m320.09,390.18c-4.7,2.9-7.9,5.8-7.4,7.2.2,1.4,1.8,2.4,3.9,3.8,3.4,2.5,5.4,6.9,3.8,8.9,2.8-2.4,4.5-5.9,4.5-9.8s-1.8-7.7-4.8-10.1h0Z"/>
        <g>
          <rect class="cls-78" x="330.59" y="259.18" width="33.7" height="174.1"/>
          <g class="cls-72">
            <g>
              <line class="cls-5" x1="354.89" y1="254.87" x2="354.89" y2="438.37"/>
              <line class="cls-5" x1="358.69" y1="254.87" x2="358.69" y2="438.37"/>
            </g>
          </g>
          <rect class="cls-5" x="330.59" y="259.18" width="33.7" height="174.1"/>
        </g>
        <path class="cls-57" d="m398.69,324.27c-7.4-3.2-19.8-5.6-34.2-6.1-4.9,0-10.4.5-16.1,1.5-20.1,3.5-35.5,12-34.3,19,0,.1.1.5.1.6,0,0-7.5-18-7.7-18.6-1.4-7.7,15.7-17.1,38-21,7-1.2,13.9-1.7,19.8-1.6,14.3,0,26.7,1.9,34.2,4.9l.2,21.3h0Z"/>
        <path class="cls-57" d="m330.49,346.18c-9.3-.7-15.7-3.3-16.4-7.5-.6-3.3,2.6-6.9,8.2-10.2,2.5.3,5.4.6,8.3.6l-.1,17.1Z"/>
        <path class="cls-57" d="m364.29,332.87c5.8.9,10.2,2.5,12.4,4.3l.2.4c1,2.2-4.1,7-12.6,12.4v-17.1h0Z"/>
        <path class="cls-57" d="m309.59,379.77c-.9-2.8,8.2-8.4,21.1-13.4,5.9-2.2,10.7-4.5,16.8-7.4,17.9-8.3,31.1-17.9,29.5-21.4l-.2-.4c1,.8,2.4,18,2.4,18,1.6,3.2-10.5,12.6-26.9,21-5.3,2.7-16.4,7-21.6,8.9-9.4,3.4-18.7,9.9-17.9,12.3l-3.2-17.6h0Z"/>
        <g>
          <path class="cls-66" d="m328.09,315.87c4.1-1.6,6.8-3.5,5.5-6.9-.8-2.2-3-2.6-6.1-1.4l-5.6,2.2,5.1,13.2c.6-.3,1.1-.5,1.7-.8s1.2-.4,1.8-.6l-2.4-5.7h0Zm-2.5-6.3l1.4-.5c1.2-.5,2.5.2,3.1,1.7.5,1.2.3,2.5-1,3.4-.4.3-1,.5-1.5.7l-2-5.3h0Z"/>
          <path class="cls-66" d="m341.19,303.98c-.6.2-1.2.4-1.8.5-.6.1-1.2.2-1.8.3l2.9,13.7,9.1-1.9c-.1-.3-.2-.6-.3-.8s0-.6-.1-.9c-1.6.5-3.3,1-5.4,1.5l-2.6-12.4h0Z"/>
          <path class="cls-66" d="m359.39,315.87c1.7-5,3.8-9.7,5.8-14.6-.4.1-.8.1-1.1.1h-1.1c-1.1,3.5-2.4,7-3.9,10.5-1.7-3.3-3.6-6.5-5-9.9-.7.1-1.4.2-2.1.2h-2.2c2.6,4.5,5.1,9,7.5,13.6.3-.1.7-.1,1-.2.4.2.8.2,1.1.3h0Z"/>
          <path class="cls-66" d="m378.39,305.27c.3-.7.6-1.3,1-2-.5-.5-2-1.2-3.7-1.4-3.7-.4-5.8,1.4-6.1,3.7-.5,4.9,6.9,4.5,6.5,7.8-.1,1.4-1.6,2-3.1,1.8-1.7-.2-2.9-1.2-3.1-2.6h-.5c-.2.9-.6,1.7-1,2.5,1.1.7,2.5,1.1,3.8,1.3,3.8.4,6.6-1.2,6.9-3.8.5-4.7-7-5-6.7-7.7.1-1.2,1-1.9,2.9-1.7,1.4.1,2.2.9,2.6,2.1h.5Z"/>
        </g>
        <g>
          <path class="cls-7" d="m656.39,219.17s-1.5,1.7-2.6,1.9-2.5-1.1-2.5-1.1c0,0-1,1.1-2.2,1.4-1.2.3-2.9-1.5-2.9-1.5,0,0-1.2,1.8-2.2,2.2-1.1.4-2.3-.5-2.3-.5,0,0-.5.9-1.3,1.4-.4.2-1-.1-1-.1l-1.2-.8-1.4-1.6-1.3-.5s-.6-2-.6-2.3c-.1-.4-.2-1.2-.2-1.2-.3-1.4,1.8-3.1,4.8-3.8,1.7-.4,3.2-.4,4.3,0,1.2-1.1,3.7-1.8,6.6-1.8,2.7,0,5,.6,6.3,1.5,1.3-.9,3.6-1.5,6.3-1.5,2.9,0,5.4.7,6.6,1.8,1.1-.4,2.6-.4,4.3,0,3,.7,5,2.4,4.8,3.8,0,0-.1.9-.2,1.2-.1.4-.6,2.3-.6,2.3l-1.3.5-1.4,1.6-1.2.8s-.6.3-1,.1c-.9-.5-1.3-1.4-1.3-1.4,0,0-1.3.9-2.3.5s-2.2-2.2-2.2-2.2c0,0-1.7,1.8-2.9,1.5s-2.2-1.4-2.2-1.4c0,0-1.4,1.3-2.5,1.1-1.6-.2-3.1-1.9-3.2-1.9h0Z"/>
          <path class="cls-27" d="m653.49,209.98c0-2.4,1.3-4.3,2.9-4.3s2.8,1.9,2.8,4.3-1.3,4.3-2.8,4.3-2.9-1.9-2.9-4.3Z"/>
          <path class="cls-27" d="m655.09,209.98c0-2.2.6-3.9,1.3-3.9s1.3,1.8,1.3,3.9-.6,3.9-1.3,3.9-1.3-1.7-1.3-3.9Z"/>
          <path class="cls-27" d="m641.69,227.58c-.4-1.2-1.2-2.4-1.2-2.4,4-1.3,9.6-2,15.9-2.1,6.2,0,11.9.8,15.9,2.1,0,0-.5.8-1.1,2-.3.6-.8,1.8-.8,1.8-3.7-1.2-8.3-1.8-14.1-1.8s-11.3.8-14.2,1.9c.1,0-.1-.7-.4-1.5h0Z"/>
          <path class="cls-27" d="m656.39,232.98c5,0,10.6-.8,12.6-1.4,1.4-.4,2.2-1.1,2-1.8-.1-.4-.4-.7-.8-.8-3-1-8.4-1.7-13.9-1.8-5.5,0-10.9.7-13.9,1.8-.4.2-.7.5-.8.8-.2.8.7,1.4,2,1.8,2.2.6,7.8,1.4,12.8,1.4Z"/>
          <g>
            <circle class="cls-36" cx="669.59" cy="211.87" r=".9"/>
            <path class="cls-55" d="m668.09,208.58c0-.5.4-.9.9-.9s.9.4.9.9-.4.9-.9.9-.9-.3-.9-.9Z"/>
            <path class="cls-55" d="m665.79,206.58c0-.5.4-.9.9-.9s.9.4.9.9-.4.9-.9.9-.9-.4-.9-.9Z"/>
            <path class="cls-55" d="m662.79,205.58c0-.5.4-.9.9-.9s.9.4.9.9-.4.9-.9.9-.9-.4-.9-.9Z"/>
            <path class="cls-55" d="m659.89,205.67c0-.5.4-.9.9-.9s.9.4.9.9-.4.9-.9.9-.9-.4-.9-.9Z"/>
            <path class="cls-32" d="m677.89,218.28c.3-.7.5-1.5.5-2.4,0-3.5-2.6-6.3-5.9-6.3-1,0-2,.3-2.8.8"/>
            <path class="cls-49" d="m667.49,213.87c.3-.6.5-1.3.5-1.9,0-2.5-2.5-4.5-5.5-4.5-1.3,0-2.5.4-3.4,1"/>
            <path class="cls-55" d="m678.69,215.37c0-.5.4-.9.9-.9s.9.4.9.9-.4.9-.9.9-.9-.4-.9-.9Z"/>
            <path class="cls-55" d="m678.39,211.98c0-.5.4-.9.9-.9s.9.4.9.9-.4.9-.9.9-.9-.4-.9-.9Z"/>
            <path class="cls-55" d="m676.19,209.28c0-.5.4-.9.9-.9s.9.4.9.9-.4.9-.9.9-.9-.3-.9-.9Z"/>
            <path class="cls-55" d="m673.39,207.87c0-.5.4-.9.9-.9s.9.4.9.9-.4.9-.9.9-.9-.3-.9-.9Z"/>
            <path class="cls-55" d="m670.49,208.08c0-.5.4-.9.9-.9s.9.4.9.9-.4.9-.9.9-.9-.4-.9-.9Z"/>
          </g>
          <path class="cls-27" d="m672.59,222.87l-1.2-1.2s-1.2.8-2.6.5-1.9-2.1-1.9-2.1c0,0-1.6,1.5-3,1.3-1.3-.1-2.2-1.3-2.2-1.3,0,0-1.5,1.1-2.8,1s-2.5-1.8-2.5-1.8c0,0-1.3,1.8-2.6,1.9-1.3.1-2.3-1.2-2.3-1.2,0,0-.6,1.3-2.2,1.6-1.6.3-3-1.4-3-1.4,0,0-.9,1.6-2,2s-2.6-.6-2.6-.6c0,0-.2.6-.4.9-.2.4-.6.4-.6.4l.4,1c4-1.2,9.5-2,15.6-2s11.8.8,15.8,2l.1-1h0Z"/>
          <g>
            <path class="cls-18" d="m642.19,211.87c0-.5.4-.9.9-.9s.9.4.9.9-.4.9-.9.9-.9-.4-.9-.9Z"/>
            <path class="cls-55" d="m642.69,208.58c0-.5.4-.9.9-.9s.9.4.9.9-.4.9-.9.9-.9-.3-.9-.9Z"/>
            <path class="cls-55" d="m645.09,206.58c0-.5.4-.9.9-.9s.9.4.9.9-.4.9-.9.9-.9-.4-.9-.9Z"/>
            <path class="cls-55" d="m647.99,205.58c0-.5.4-.9.9-.9s.9.4.9.9-.4.9-.9.9-.9-.4-.9-.9Z"/>
            <path class="cls-55" d="m650.99,205.67c0-.5.4-.9.9-.9s.9.4.9.9-.4.9-.9.9-.9-.4-.9-.9Z"/>
            <path class="cls-32" d="m634.79,218.28c-.3-.7-.5-1.5-.5-2.4,0-3.5,2.6-6.3,5.9-6.3,1,0,2,.3,2.8.8"/>
            <path class="cls-49" d="m645.29,213.78c-.3-.6-.6-1.2-.6-1.8,0-2.5,2.5-4.5,5.5-4.5,1.3,0,2.5.4,3.4,1"/>
            <path class="cls-55" d="m632.09,215.37c0-.5.4-.9.9-.9s.9.4.9.9-.4.9-.9.9-.9-.4-.9-.9Z"/>
            <path class="cls-55" d="m632.49,211.98c0-.5.4-.9.9-.9s.9.4.9.9-.4.9-.9.9-.9-.4-.9-.9Z"/>
            <path class="cls-55" d="m634.59,209.28c0-.5.4-.9.9-.9s.9.4.9.9-.4.9-.9.9-.9-.3-.9-.9Z"/>
            <path class="cls-55" d="m637.39,207.87c0-.5.4-.9.9-.9s.9.4.9.9-.4.9-.9.9-.9-.3-.9-.9Z"/>
            <path class="cls-55" d="m640.39,208.08c0-.5.4-.9.9-.9s.9.4.9.9-.4.9-.9.9-.9-.4-.9-.9Z"/>
          </g>
          <path class="cls-27" d="m656.49,217.17l.6.1c-.1.2-.1.5-.1.8,0,1.3,1,2.3,2.3,2.3,1,0,1.9-.7,2.2-1.6,0,0,.2-.8.3-.8s.1.9.1.9c.2,1.2,1.2,1.9,2.3,1.9,1.3,0,2.3-1,2.3-2.3v-.3l.7-.8.4,1c-.2.3-.2.6-.2,1,0,1.2,1,2.2,2.2,2.2.8,0,1.4-.4,1.8-1l.5-.6v.8c0,.8.3,1.4,1,1.6,0,0,.8.1,1.9-.8,1.1-.9,1.7-1.6,1.7-1.6l.1.9s-1.1,1.8-2,2.4c-.5.3-1.3.7-2,.6-.7-.1-1.2-.7-1.4-1.3-.5.3-1,.5-1.7.5-1.3,0-2.5-.8-2.9-1.9-.6.7-1.4,1.1-2.4,1.1s-2-.5-2.6-1.3c-.6.6-1.4.9-2.3.9-1.2,0-2.2-.6-2.8-1.5-.6.9-1.6,1.5-2.8,1.5-.9,0-1.7-.4-2.3-.9-.6.8-1.5,1.3-2.6,1.3-1,0-1.8-.4-2.4-1.1-.5,1.1-1.6,1.9-2.9,1.9-.6,0-1.2-.2-1.7-.5-.2.7-.7,1.2-1.4,1.3-.6.1-1.4-.2-2-.6-1-.6-2.1-2.4-2.1-2.4l.2-.9s.6.7,1.7,1.6c1.1.9,1.9.8,1.9.8.7-.1,1-.8,1-1.6v-.8l.5.6c.4.6,1.1,1,1.8,1,1.2,0,2.2-1,2.2-2.2,0-.4-.1-.7-.2-1l.4-1,.7.8v.3c0,1.3,1,2.3,2.3,2.3,1.1,0,2.1-.8,2.3-1.9,0,0,0-.9.1-.9s.3.9.3.8c.3.9,1.2,1.6,2.2,1.6,1.3,0,2.3-1,2.3-2.3,0-.3,0-.6-.1-.8l.6-.1h0Z"/>
          <path class="cls-27" d="m656.39,223.17c-6.2,0-11.8.8-15.9,2.1-.3.1-.6-.1-.7-.4-.1-.3.1-.6.4-.7,4-1.3,9.8-2.1,16.2-2.1s12.2.8,16.2,2.1c.3.1.5.4.4.7s-.4.5-.7.4c-4-1.3-9.6-2.1-15.9-2.1h0Z"/>
          <path class="cls-15" d="m650.39,225.48c0-.5.4-.9.9-.9s.9.4.9.9-.4.9-.9.9-.9-.4-.9-.9Z"/>
          <path class="cls-54" d="m656.49,225.87h-2c-.4,0-.7-.3-.7-.7s.3-.7.7-.7h4.1c.4,0,.7.3.7.7s-.3.7-.7.7h-2.1Z"/>
          <path class="cls-37" d="m646.39,226.58l-1.4.2c-.4.1-.7-.2-.8-.6-.1-.4.2-.7.6-.8l1.5-.2,1.5-.2c.4-.1.7.2.8.6s-.2.7-.6.8l-1.6.2h0Z"/>
          <polygon class="cls-54" points="640.59 227.67 641.29 226.58 642.59 226.87 641.79 228.08 640.59 227.67"/>
          <path class="cls-15" d="m660.69,225.48c0-.5.4-.9.9-.9s.9.4.9.9-.4.9-.9.9-.9-.4-.9-.9Z"/>
          <path class="cls-37" d="m666.39,226.58l1.4.2c.4.1.7-.2.8-.6.1-.4-.2-.7-.6-.8l-1.5-.2-1.5-.2c-.4-.1-.7.2-.8.6s.2.7.6.8l1.6.2h0Z"/>
          <polygon class="cls-54" points="672.09 227.78 671.59 226.58 670.19 226.78 670.89 228.08 672.09 227.78"/>
          <g>
            <path class="cls-67" d="m656.39,231.78c-5,0-9.6-.5-13.1-1.4,3.5-.9,8-1.5,13.1-1.5s9.6.6,13.1,1.5c-3.5.9-8,1.4-13.1,1.4Z"/>
            <g class="cls-81">
              <g>
                <line class="cls-49" x1="660.49" y1="225.98" x2="660.49" y2="234.28"/>
                <line class="cls-8" x1="658.39" y1="225.98" x2="658.39" y2="234.28"/>
                <line class="cls-5" x1="656.69" y1="225.98" x2="656.69" y2="234.28"/>
                <line class="cls-5" x1="654.99" y1="225.98" x2="654.99" y2="234.28"/>
                <line class="cls-5" x1="653.39" y1="225.98" x2="653.39" y2="234.28"/>
                <line class="cls-5" x1="652.09" y1="225.98" x2="652.09" y2="234.28"/>
                <line class="cls-6" x1="650.79" y1="225.98" x2="650.79" y2="234.28"/>
                <line class="cls-39" x1="649.39" y1="225.98" x2="649.39" y2="234.28"/>
                <line class="cls-39" x1="648.09" y1="225.98" x2="648.09" y2="234.28"/>
                <line class="cls-56" x1="646.69" y1="225.98" x2="646.69" y2="234.28"/>
                <line class="cls-1" x1="645.19" y1="225.98" x2="645.19" y2="234.28"/>
              </g>
            </g>
            <path class="cls-49" d="m656.39,231.78c-5,0-9.6-.5-13.1-1.4,3.5-.9,8-1.5,13.1-1.5s9.6.6,13.1,1.5c-3.5.9-8,1.4-13.1,1.4Z"/>
          </g>
          <path class="cls-27" d="m672.29,220.17c.1-.4,0-.8-.3-.9s-.6.2-.8.6,0,.8.3.9.7-.1.8-.6Z"/>
          <path class="cls-27" d="m662.29,218.17c0-.4-.1-.8-.4-.8s-.6.3-.6.7.1.8.4.8.5-.3.6-.7h0Z"/>
          <path class="cls-27" d="m650.59,218.17c0-.4.1-.8.4-.8s.6.3.6.7-.1.8-.4.8-.5-.3-.6-.7h0Z"/>
          <path class="cls-27" d="m640.59,220.17c-.1-.4,0-.8.3-.9s.6.2.8.6,0,.8-.3.9-.7-.1-.8-.6Z"/>
          <g>
            <polygon class="cls-27" points="656.39 212.08 654.59 213.17 655.99 216.17 656.39 216.58 656.89 216.17 658.19 213.17 656.39 212.08"/>
            <polygon class="cls-27" points="652.49 216.58 653.29 217.87 656.09 216.98 656.39 216.58 656.09 216.17 653.29 215.28 652.49 216.58"/>
            <polygon class="cls-27" points="660.29 216.58 659.49 217.87 656.69 216.98 656.39 216.58 656.69 216.17 659.49 215.28 660.29 216.58"/>
          </g>
          <g>
            <polygon class="cls-27" points="644.79 213.37 643.49 214.78 645.19 217.28 645.69 217.48 646.09 217.08 646.69 214.08 644.79 213.37"/>
            <polygon class="cls-27" points="641.89 218.37 642.99 219.37 645.49 217.98 645.69 217.48 645.29 217.17 642.39 216.87 641.89 218.37"/>
            <polygon class="cls-27" points="649.59 216.78 648.99 218.17 646.09 217.87 645.79 217.48 645.99 217.08 648.49 215.58 649.59 216.78"/>
          </g>
          <polygon class="cls-27" points="639.09 218.78 638.89 220.17 635.99 220.58 635.59 220.28 635.69 219.78 637.79 217.87 639.09 218.78"/>
          <path class="cls-27" d="m644.69,217.48c0-.6.5-1,1-1s1,.4,1,1-.5,1-1,1-1-.4-1-1Z"/>
          <g>
            <polygon class="cls-27" points="667.99 213.37 669.39 214.78 667.59 217.28 667.19 217.48 666.79 217.08 666.19 214.08 667.99 213.37"/>
            <polygon class="cls-27" points="670.89 218.37 669.89 219.37 667.39 217.98 667.19 217.48 667.49 217.17 670.39 216.87 670.89 218.37"/>
            <polygon class="cls-27" points="663.29 216.78 663.79 218.17 666.69 217.87 667.09 217.48 666.89 217.08 664.39 215.58 663.29 216.78"/>
          </g>
          <polygon class="cls-27" points="673.29 218.78 673.59 220.17 676.49 220.58 676.89 220.28 676.79 219.78 674.59 217.87 673.29 218.78"/>
          <path class="cls-27" d="m655.39,216.58c0-.6.5-1,1-1s1,.5,1,1-.5,1-1,1-1-.5-1-1Z"/>
          <path class="cls-27" d="m666.09,217.48c0-.6.5-1,1-1s1,.4,1,1-.5,1-1,1-1-.4-1-1Z"/>
          <g>
            <circle class="cls-65" cx="656.39" cy="205.08" r="1.9"/>
            <polygon class="cls-4" points="657.79 204.37 657.79 205.67 654.79 205.67 654.79 204.37 655.79 204.37 655.79 201.58 654.49 201.58 654.49 200.28 655.79 200.28 655.79 198.98 657.09 198.98 657.09 200.28 658.29 200.28 658.29 201.58 657.09 201.58 657.09 204.37 657.79 204.37"/>
            <g class="cls-77">
              <polygon class="cls-4" points="659.09 204.37 659.09 205.67 653.79 205.67 653.79 204.37 655.79 204.37 655.79 201.58 654.49 201.58 654.49 200.28 655.79 200.28 655.79 198.98 657.09 198.98 657.09 200.28 658.29 200.28 658.29 201.58 657.09 201.58 657.09 204.37 659.09 204.37"/>
            </g>
            <circle class="cls-64" cx="656.39" cy="205.08" r="1.9"/>
            <circle class="cls-64" cx="656.39" cy="205.08" r="1.9"/>
            <path class="cls-49" d="m656.99,203.28c.8.2,1.4,1,1.4,1.8,0,1.1-.8,1.9-1.9,1.9s-1.9-.9-1.9-1.9c0-.9.6-1.6,1.4-1.9"/>
          </g>
          <path class="cls-2" d="m635.19,220.48s-.8-1.1-1.4-1.6c-.4-.4-1.4-.7-1.4-.7,0-.2.6-.6,1.2-.6.4,0,.7.2.9.4l.1-.4s.5.1.7.7.1,1.6.1,1.6c0,0,0,.4-.2.6h0Z"/>
          <path class="cls-27" d="m635.19,219.98c.2-.3.7-.2,1.1.1.4.3.5.8.2,1.1-.2.3-.7.2-1.1-.1-.3-.4-.4-.9-.2-1.1Z"/>
          <path class="cls-2" d="m677.29,220.48s.8-1.1,1.4-1.6c.4-.4,1.4-.7,1.4-.7,0-.2-.6-.6-1.2-.6-.4,0-.7.2-.9.4l-.1-.4s-.5.1-.7.7-.1,1.6-.1,1.6c0,0,0,.4.2.6h0Z"/>
          <path class="cls-27" d="m677.29,219.98c-.2-.3-.7-.2-1.1.1-.4.3-.5.8-.2,1.1.2.3.7.2,1.1-.1.3-.4.4-.9.2-1.1Z"/>
        </g>
        <g>
          <rect class="cls-38" x="633.39" y="232.58" width="46.2" height="12.8"/>
          <path class="cls-61" d="m674.69,253.87c-.3-.1-.5-.1-.9-.1h-34.6c-.3,0-.7.1-1,.2,1.2-.4,2-1.6,2-2.9s-.9-2.5-2.1-2.9c.3.1.7.2,1,.2h34.6c.3,0,.7,0,1-.1h-.2c-1.2.4-1.9,1.6-1.9,2.8s.9,2.4,2.1,2.8Z"/>
          <path class="cls-61" d="m639.29,253.67h34.6c1.2,0,2.1.8,2.1,1.7h0c0,.9-.9,1.7-2.1,1.7h-34.6c-1.2,0-2.1-.8-2.1-1.7h0c0-.9.9-1.7,2.1-1.7h0Z"/>
          <path class="cls-61" d="m639.19,245.37h34.6c1.2,0,2.1.6,2.1,1.4h0c0,.8-.9,1.4-2.1,1.4h-34.6c-1.2,0-2.1-.6-2.1-1.4h0c0-.8,1-1.4,2.1-1.4Z"/>
        </g>
        <g>
          <path class="cls-44" d="m624.19,460.37c3.2,0,6-.7,8.1-1.9,2.1-1.1,4.9-1.8,8-1.8s6,.7,8.1,1.8c2.1,1.1,5,1.9,8.1,1.9s6-.8,8.1-2c2.1-1.1,4.8-1.7,7.9-1.7s5.9.6,8,1.8c2.1,1.2,5,1.9,8.2,1.9v5.3c-3.2,0-6.1-.8-8.2-1.9-2.1-1.1-4.9-1.8-8-1.8s-5.8.7-7.9,1.7c-2.1,1.2-5,2-8.1,2s-6-.7-8.1-1.9c-2.1-1.1-5-1.8-8.1-1.8s-5.9.7-8,1.8c-2.1,1.2-4.9,1.9-8.1,1.9v-5.3Z"/>
          <path class="cls-29" d="m624.19,465.58c3.2,0,6-.7,8.1-1.9,2.1-1.1,4.9-1.8,8-1.8s6,.7,8.1,1.8c2.1,1.1,5,1.9,8.1,1.9s6-.8,8.1-2c2.1-1.1,4.8-1.7,7.9-1.7s5.9.6,8,1.8c2.1,1.2,5,1.9,8.2,1.9v5.3c-3.2,0-6.1-.8-8.2-1.9-2.1-1.1-4.9-1.8-8-1.8s-5.8.7-7.9,1.7c-2.1,1.2-5,2-8.1,2s-6-.7-8.1-1.9c-2.1-1.1-5-1.8-8.1-1.8s-5.9.7-8,1.8c-2.1,1.2-4.9,1.9-8.1,1.9v-5.3Z"/>
          <path class="cls-44" d="m624.19,470.87c3.2,0,6-.7,8.1-1.9,2.1-1.1,4.9-1.8,8-1.8s6,.7,8.1,1.8c2.1,1.1,5,1.9,8.1,1.9s6-.8,8.1-2c2.1-1.1,4.8-1.7,7.9-1.7s5.9.6,8,1.8c2.1,1.2,5,1.9,8.2,1.9v5.3c-3.2,0-6.1-.8-8.2-1.9-2.1-1.1-4.9-1.8-8-1.8s-5.8.7-7.9,1.7c-2.1,1.2-5,2-8.1,2s-6-.7-8.1-1.9c-2.1-1.1-5-1.8-8.1-1.8s-5.9.7-8,1.8c-2.1,1.2-4.9,1.9-8.1,1.9v-5.3h0Z"/>
          <path class="cls-29" d="m624.29,481.37c3.2,0,6-.7,8.1-1.9,2.1-1.1,4.9-1.8,8-1.8s6,.7,8.1,1.8c2.1,1.1,5,1.9,8.1,1.9s6-.8,8.1-2c2.1-1.1,4.8-1.7,7.9-1.7s5.9.6,8,1.8c2.1,1.2,5,1.9,8.2,1.9v-5.2c-3.2,0-6.1-.8-8.2-2-2.1-1.1-4.9-1.8-8-1.8s-5.8.7-7.9,1.7c-2.1,1.2-5,2-8.1,2s-6-.7-8.1-1.9c-2.1-1.1-5-1.8-8.1-1.8s-5.9.7-8,1.8c-2.1,1.2-4.9,1.9-8.1,1.9v5.3h0Z"/>
          <path class="cls-44" d="m624.29,486.68c3.2,0,6-.7,8.1-1.9,2.1-1.1,4.9-1.8,8-1.8s6,.7,8.1,1.8c2.1,1.1,5,1.9,8.1,1.9s6-.8,8.1-2c2.1-1.1,4.8-1.7,7.9-1.7s5.9.6,8,1.8c2.1,1.2,5,1.9,8.2,1.9v-5.2c-3.2,0-6.1-.8-8.2-2-2.1-1.1-4.9-1.8-8-1.8s-5.8.7-7.9,1.7c-2.1,1.2-5,2-8.1,2s-6-.7-8.1-1.9c-2.1-1.1-5-1.8-8.1-1.8s-5.9.7-8,1.8c-2.1,1.2-4.9,1.9-8.1,1.9v5.3h0Z"/>
        </g>
        <g>
          <path class="cls-61" d="m674.69,438.68c-.1.4-.3.9-.3,1.4,0,3.2,2.6,5.8,5.8,5.8h-47.5c3.2,0,5.8-2.6,5.8-5.8,0-.5-.1-.9-.2-1.4.3.1.6.1.9.1h34.6c.3,0,.7,0,.9-.1h0Z"/>
          <path class="cls-61" d="m639.29,435.37h34.6c1.2,0,2.1.8,2.1,1.7h0c0,1-.9,1.7-2.1,1.7h-34.6c-1.2,0-2.1-.8-2.1-1.7h0c0-.9.9-1.7,2.1-1.7Z"/>
          <rect class="cls-38" x="632.79" y="445.77" width="47.4" height="12.7"/>
        </g>
        <path class="cls-57" d="m683.89,390.18c4.7,2.9,7.9,5.8,7.4,7.2-.3,1.4-1.8,2.4-3.9,3.8-3.3,2.5-5.4,6.9-3.8,8.9-2.8-2.4-4.5-5.9-4.5-9.8s1.8-7.7,4.8-10.1h0Z"/>
        <g>
          <rect class="cls-78" x="639.69" y="259.18" width="33.7" height="174.1"/>
          <g class="cls-83">
            <g>
              <line class="cls-5" x1="664.19" y1="254.87" x2="664.19" y2="438.37"/>
              <line class="cls-5" x1="667.89" y1="254.87" x2="667.89" y2="438.37"/>
            </g>
          </g>
          <rect class="cls-5" x="639.69" y="259.18" width="33.7" height="174.1"/>
        </g>
        <path class="cls-57" d="m605.29,324.27c7.4-3.2,19.8-5.6,34.2-6.1,4.9,0,10.4.5,16.1,1.5,20.1,3.5,35.5,12,34.3,19,0,.1-.1.5-.1.6,0,0,7.5-18,7.7-18.6,1.4-7.7-15.7-17.1-38-21-7-1.2-13.9-1.7-19.8-1.6-14.3,0-26.7,1.9-34.2,4.9l-.2,21.3h0Z"/>
        <path class="cls-57" d="m673.49,346.18c9.3-.7,15.7-3.3,16.4-7.5.6-3.3-2.6-6.9-8.2-10.2-2.5.3-5.3.6-8.3.6l.1,17.1h0Z"/>
        <path class="cls-57" d="m639.69,332.87c-5.8.9-10.2,2.5-12.4,4.3l-.2.4c-1,2.2,4.1,7,12.6,12.4v-17.1Z"/>
        <path class="cls-57" d="m694.39,379.77c.9-2.8-8.2-8.4-21.1-13.4-5.9-2.2-10.7-4.5-16.8-7.4-17.9-8.3-31.1-17.9-29.5-21.4l.2-.4c-1,.8-2.4,18-2.4,18-1.6,3.2,10.5,12.6,26.9,21,5.3,2.7,16.4,7,21.6,8.9,9.4,3.4,18.7,9.9,17.9,12.3l3.2-17.6h0Z"/>
        <g>
          <path class="cls-66" d="m626.19,316.87c1.3-5.1,2.9-10,4.5-15-.4.1-.7.2-1.1.2s-.8.1-1.1.1c-.8,3.6-1.8,7.2-2.9,10.8-2-3.1-4.2-6.2-5.9-9.4-.7.1-1.4.3-2.1.4-.7.1-1.4.2-2.2.2,3,4.3,5.9,8.5,8.7,12.9.3-.1.7-.2,1-.3.4.1.8.1,1.1.1h0Z"/>
          <path class="cls-66" d="m638.99,301.98c-.6,0-1.2.1-1.8.1s-1.2-.1-1.8-.1l-.2,14,9.3.2c0-.3-.1-.6-.1-.9s.1-.6.1-.9c-1.7.1-3.5.2-5.6.2l.1-12.6h0Z"/>
          <path class="cls-66" d="m653.59,304.27c1.5.1,2.9.4,4.3.7,0-.3-.1-.6,0-.9,0-.3.1-.6.2-.9l-12.6-1.1c0,.3.1.6,0,.9,0,.3-.1.6-.2.9,1.3,0,2.8,0,4.6.1l-1.1,12.6c.6,0,1.2,0,1.8.1.6,0,1.2.2,1.8.3l1.2-12.7h0Z"/>
          <path class="cls-66" d="m658.69,318.08c.6.1,1.2.2,1.8.3.6.1,1.2.3,1.8.5l1.5-6.4h.2c.3.9.8,2,1,2.6l1.9,4.9c.7.1,1.5.2,2.2.4.7.2,1.4.4,2.2.6l-.6-1.5c-1-2.2-2.1-4.4-2.9-6.6,2.3.1,4.1-.8,4.6-2.8.3-1.4-.2-2.4-1.4-3.4-.9-.7-2.7-1-3.8-1.3l-5.1-1.2-3.4,13.9h0Zm6.5-11.9c1.5.3,3.3.6,3.3,2.3,0,.4,0,.8-.1,1-.5,2.1-2,2.8-4.4,2l1.2-5.3h0Z"/>
          <path class="cls-66" d="m682.69,322.27c-.1,1.5-.4,3-.6,4.6.6.3,1.3.6,1.9,1s1.2.8,1.8,1.1l1.2-15.8c-.3-.1-.6-.2-.8-.4s-.5-.3-.8-.5l-13.2,8.9c.3.2.7.3,1,.5s.6.4,1,.6c1.1-1,2.3-1.8,3.6-2.8l4.9,2.8h0Zm-3.8-3.6l4.4-3-.5,5.2-3.9-2.2h0Z"/>
        </g>
        <path class="cls-25" d="m449.99,175.58c0-2.5,2-4.5,4.5-4.5s4.5,2,4.5,4.5-2,4.5-4.5,4.5-4.5-2.1-4.5-4.5Z"/>
        <g>
          <path class="cls-67" d="m500.69,136.78c13.8,0,26,2.1,34,5.5,4.6,2.2,10.7,3.8,17.4,4.7,5.1.7,10,.9,14.2.5,5.6-.1,13.8,1.6,22,5.4,6.8,3.1,12.4,7,16.2,10.8l-3.2,3.1-.9,8.7-8.9,10.8-4.5,4-10.5,8.9-5.4.5-1.6,4.9-68.2-8.4-68.4,8.4-1.6-4.9-5.4-.5-10.5-8.9-4.5-4-8.9-10.8-.9-8.7-3.2-3.1c3.8-3.7,9.4-7.6,16.2-10.8,8.2-3.8,16.3-5.6,22-5.4,4.2.3,9.1.2,14.2-.5,6.7-.9,12.8-2.6,17.4-4.7,7.7-3.4,19.2-5.5,33-5.5h0Z"/>
          <g class="cls-74">
            <g class="cls-75">
              <image class="cls-73" width="1352" height="238" transform="translate(410.59 169.69) scale(.13)" xlink:href="84D13309.png"/>
            </g>
          </g>
          <path class="cls-49" d="m500.69,136.78c13.8,0,26,2.1,34,5.5,4.6,2.2,10.7,3.8,17.4,4.7,5.1.7,10,.9,14.2.5,5.6-.1,13.8,1.6,22,5.4,6.8,3.1,12.4,7,16.2,10.8l-3.2,3.1-.9,8.7-8.9,10.8-4.5,4-10.5,8.9-5.4.5-1.6,4.9-68.2-8.4-68.4,8.4-1.6-4.9-5.4-.5-10.5-8.9-4.5-4-8.9-10.8-.9-8.7-3.2-3.1c3.8-3.7,9.4-7.6,16.2-10.8,8.2-3.8,16.3-5.6,22-5.4,4.2.3,9.1.2,14.2-.5,6.7-.9,12.8-2.6,17.4-4.7,7.7-3.4,19.2-5.5,33-5.5h0Z"/>
        </g>
        <g>
          <path class="cls-61" d="m501.49,209.78c-25.7.1-48.8,3.4-65,8.7,1.4-.7,1.2-2.4-.5-7-2-5.5-5.2-5.3-5.2-5.3,18-5.6,43-9.1,70.8-9.1s53,3.5,71,9.1c0,0-3.2-.2-5.2,5.3-1.7,4.6-1.8,6.3-.5,7-16.1-5.3-39.6-8.7-65.4-8.7h0Z"/>
          <path class="cls-61" d="m501.69,197.08c-27.8,0-52.8,3.5-70.8,9.1-1.2.4-2.5-.1-2.9-1.3s.3-2.6,1.5-3c18-5.8,43.7-9.5,72.2-9.6,28.5.1,54.2,3.7,72.3,9.6,1.2.4,1.8,1.8,1.5,3-.4,1.2-1.7,1.7-2.8,1.3-18.1-5.6-43.2-9.1-71-9.1h0Z"/>
          <g>
            <path class="cls-61" d="m501.69,231.78c-25.4,0-48.2-3.2-64.4-8.4-1.2-.4-1.8-1.5-1.8-2.7,0-1.1.6-2.2,1.8-2.6,16.2-5.2,39-8.3,64.4-8.4,25.4,0,48.1,3.2,64.4,8.4,1.2.4,1.8,1.4,1.7,2.6.1,1.2-.6,2.3-1.7,2.7-16.2,5.2-39,8.4-64.4,8.4h0Z"/>
            <g>
              <path class="cls-67" d="m501.69,228.28c-22.9,0-43.6-2.8-59.4-7.1,15.8-4.3,36.5-6.9,59.4-7,22.9,0,43.8,2.7,59.5,7-15.8,4.3-36.6,7.1-59.5,7.1h0Z"/>
              <g class="cls-82">
                <g>
                  <g>
                    <line class="cls-48" x1="501.99" y1="211.08" x2="501.99" y2="240.08"/>
                    <line class="cls-53" x1="498.39" y1="211.08" x2="498.39" y2="240.08"/>
                    <line class="cls-49" x1="494.99" y1="211.08" x2="494.99" y2="240.08"/>
                    <line class="cls-8" x1="491.59" y1="211.08" x2="491.59" y2="240.08"/>
                    <line class="cls-5" x1="488.59" y1="211.08" x2="488.59" y2="240.08"/>
                    <line class="cls-6" x1="485.59" y1="211.08" x2="485.59" y2="240.08"/>
                    <line class="cls-6" x1="482.79" y1="211.08" x2="482.79" y2="240.08"/>
                    <line class="cls-22" x1="480.19" y1="210.87" x2="480.19" y2="239.87"/>
                    <line class="cls-22" x1="477.59" y1="210.87" x2="477.59" y2="239.87"/>
                    <line class="cls-59" x1="475.19" y1="210.87" x2="475.19" y2="239.87"/>
                    <line class="cls-59" x1="472.79" y1="210.87" x2="472.79" y2="239.87"/>
                    <line class="cls-59" x1="470.39" y1="210.87" x2="470.39" y2="239.87"/>
                    <line class="cls-58" x1="467.99" y1="210.87" x2="467.99" y2="239.87"/>
                    <line class="cls-46" x1="465.59" y1="210.87" x2="465.59" y2="239.87"/>
                    <line class="cls-50" x1="463.19" y1="210.87" x2="463.19" y2="239.87"/>
                    <line class="cls-26" x1="460.69" y1="210.87" x2="460.69" y2="239.87"/>
                    <line class="cls-26" x1="458.09" y1="210.87" x2="458.09" y2="239.87"/>
                    <line class="cls-12" x1="455.49" y1="210.87" x2="455.49" y2="239.87"/>
                    <line class="cls-13" x1="452.99" y1="210.67" x2="452.99" y2="239.67"/>
                    <line class="cls-9" x1="450.39" y1="210.67" x2="450.39" y2="239.67"/>
                    <line class="cls-42" x1="447.79" y1="210.67" x2="447.79" y2="239.67"/>
                    <line class="cls-21" x1="445.19" y1="210.67" x2="445.19" y2="239.67"/>
                  </g>
                  <line class="cls-30" x1="505.79" y1="211.08" x2="505.79" y2="240.08"/>
                  <line class="cls-30" x1="510.29" y1="211.08" x2="510.29" y2="240.08"/>
                  <line class="cls-30" x1="516.39" y1="211.08" x2="516.39" y2="240.08"/>
                </g>
              </g>
              <path class="cls-5" d="m501.69,228.28c-22.9,0-43.6-2.8-59.4-7.1,15.8-4.3,36.5-6.9,59.4-7,22.9,0,43.8,2.7,59.5,7-15.8,4.3-36.6,7.1-59.5,7.1h0Z"/>
            </g>
          </g>
          <g>
            <path class="cls-28" d="m481.79,203.78c0-1.3,1-2.3,2.3-2.3s2.3,1,2.3,2.3-1,2.3-2.3,2.3-2.3-1.1-2.3-2.3Z"/>
            <path class="cls-57" d="m501.69,205.58h-6.8c-1.2,0-2.3-1-2.3-2.3s1-2.3,2.3-2.3h13.8c1.2,0,2.3,1,2.3,2.3s-1,2.3-2.3,2.3h-7Z"/>
            <path class="cls-10" d="m467.49,207.48l-4.9.6c-1.2.1-2.4-.7-2.6-2-.1-1.2.7-2.4,2-2.5l4.9-.6,5-.6c1.2-.1,2.4.7,2.5,2s-.8,2.4-2,2.5l-4.9.6h0Z"/>
            <path class="cls-28" d="m447.59,207.98c0-1.2,1-2.3,2.3-2.3s2.3,1,2.3,2.3-1,2.3-2.3,2.3-2.3-1.1-2.3-2.3Z"/>
            <polygon class="cls-57" points="432.49 212.08 434.99 208.58 441.99 209.58 436.39 213.87 432.49 212.08"/>
            <path class="cls-10" d="m535.89,207.48l4.9.6c1.2.1,2.4-.7,2.6-2s-.7-2.4-2-2.5l-4.9-.6-5-.6c-1.2-.1-2.4.7-2.5,2-.2,1.2.8,2.4,2,2.5l4.9.6h0Z"/>
            <path class="cls-28" d="m517.09,203.78c0-1.3,1-2.3,2.3-2.3s2.3,1,2.3,2.3-1,2.3-2.3,2.3-2.3-1.1-2.3-2.3Z"/>
            <path class="cls-28" d="m551.29,207.98c0-1.2,1-2.3,2.3-2.3s2.3,1,2.3,2.3-1,2.3-2.3,2.3-2.3-1.1-2.3-2.3Z"/>
            <polygon class="cls-57" points="570.99 212.08 568.39 208.58 561.49 209.58 566.99 213.87 570.99 212.08"/>
          </g>
          <path class="cls-5" d="m439.49,221.87c16.1-4.8,37.9-7.7,62.2-7.8,24.3,0,46.2,3,62.3,7.8"/>
        </g>
        <path class="cls-61" d="m450.29,155.78l2.9,2.4,4.3-7.4c-4.7-3-7.9-8.3-7.9-14.2,0-.7,0-1.3.1-2,.5-9.5,11.4-17.3,25.3-17.3,7.2,0,13.7,2.1,18.3,5.4.1-1.5.2-2.7.4-4.1-5-3.1-11.6-5-18.8-5-16,0-28.5,9.6-29.1,20.9-.1.7-.1,1.3-.1,2,0,6.1,2.6,11.5,6.8,15.3l-2.2,4h0Z"/>
        <path class="cls-61" d="m450.49,155.87c-5.5-4.3-8.8-10.1-8.8-16.6,0-7.4,4.6-14,11.6-18.4-4.3,3.7-6.9,8.4-7.3,13.6-.1.7-.1,1.3-.1,2,0,6.1,2.6,11.5,6.8,15.3l-2.2,4.1h0Z"/>
        <path class="cls-61" d="m402.39,163.37c-3-3.6-4.9-8.3-4.9-13.4,0-3.1.7-6,1.9-8.7,4.4-9.6,18.3-16.6,34.7-16.6,4.5,0,8.8.5,12.7,1.5-.9,1-1.6,2.1-2.2,3.2-3.3-.7-6.8-1-10.5-1-15.1,0-27.7,6.2-31.3,14.5-1,2.1-1.5,4.5-1.5,7,0,5.1,2.2,9.6,5.8,12.7l-5.5,9.4-2.9-2.5,3.7-6.1h0Z"/>
        <path class="cls-61" d="m407.99,131.87c-4,2.6-7,5.9-8.6,9.5-1.2,2.6-1.9,5.6-1.9,8.7,0,5.1,1.9,9.8,4.9,13.4l-3.3,5.7c-3.2-4.3-5-9.3-5-14.6,0-9.4,5.5-17.4,13.9-22.7Z"/>
        <path class="cls-61" d="m501.49,111.67c3.6,0,6.8,2.5,7.5,6,.5,3,.8,6.5.9,10.1v1.1c0,.4.1.9.1,1.4.1,7.7,1.2,14.5,2.7,18.6l-11.1,11.2-11.2-11.2c1.5-4.1,2.5-10.9,2.7-18.6,0-.5.1-.9.1-1.4v-1.1c.1-3.7.4-7.1.9-10.1.5-3.4,3.7-6,7.4-6h0Z"/>
        <path class="cls-61" d="m501.49,115.38c1.9,0,3.5,1.3,3.9,3.1.5,2.8.8,6.1.8,9.6v1.1c0,.4.1.9.1,1.3.1,7.3,1.1,13.7,2.5,17.6l-7.3,7.3-7.3-7.3c1.4-3.9,2.4-10.3,2.5-17.6,0-.4.1-.9.1-1.3v-1.1c.1-3.5.4-6.7.8-9.6.3-1.8,2-3.1,3.9-3.1h0Z"/>
        <path class="cls-61" d="m552.59,155.78l-2.9,2.4-4.3-7.4c4.7-3,7.9-8.3,7.9-14.2,0-.7,0-1.3-.1-2-.5-9.5-11.4-17.3-25.3-17.3-7.2,0-13.7,2.1-18.3,5.4-.1-1.5-.2-2.7-.4-4.1,5-3.1,11.6-5,18.8-5,16,0,28.5,9.6,29.1,20.9.1.7.1,1.3.1,2,0,6.1-2.6,11.5-6.8,15.3l2.2,4h0Z"/>
        <path class="cls-61" d="m552.39,155.87c5.5-4.3,8.8-10.1,8.8-16.6,0-7.4-4.6-14-11.6-18.4,4.3,3.7,6.9,8.4,7.3,13.6.1.7.1,1.3.1,2,0,6.1-2.6,11.5-6.8,15.3l2.2,4.1h0Z"/>
        <path class="cls-61" d="m600.49,163.37c3-3.6,4.9-8.3,4.9-13.4,0-3.1-.7-6-1.9-8.7-4.4-9.6-18.2-16.6-34.7-16.6-4.5,0-8.8.5-12.7,1.5.9,1,1.6,2.1,2.2,3.2,3.3-.7,6.8-1,10.5-1,15.1,0,27.7,6.2,31.3,14.5,1,2.1,1.5,4.5,1.5,7,0,5.1-2.2,9.6-5.8,12.7l5.5,9.4,2.9-2.5-3.7-6.1h0Z"/>
        <path class="cls-61" d="m594.89,131.87c4,2.6,7,5.9,8.6,9.5,1.2,2.6,1.9,5.6,1.9,8.7,0,5.1-1.9,9.8-4.9,13.4l3.3,5.7c3.2-4.3,5-9.3,5-14.6,0-9.4-5.5-17.4-13.9-22.7h0Z"/>
        <line class="cls-5" x1="502.19" y1="146.17" x2="502.09" y2="146.17"/>
        <path class="cls-28" d="m497.49,150.37c0-2.2,1.8-3.9,3.9-3.9s3.9,1.8,3.9,3.9-1.8,3.9-3.9,3.9-3.9-1.7-3.9-3.9Z"/>
        <path class="cls-28" d="m497.49,142.58c0-2.2,1.8-3.9,3.9-3.9s3.9,1.8,3.9,3.9-1.8,3.9-3.9,3.9-3.9-1.7-3.9-3.9Z"/>
        <path class="cls-28" d="m498.29,134.28c0-1.7,1.4-3.2,3.1-3.2s3.1,1.4,3.1,3.2-1.4,3.1-3.1,3.1-3.1-1.3-3.1-3.1Z"/>
        <path class="cls-28" d="m499.19,126.78c0-1.2,1-2.3,2.3-2.3s2.3,1,2.3,2.3-1,2.3-2.3,2.3-2.3-1-2.3-2.3Z"/>
        <path class="cls-28" d="m499.69,120.28c0-1,.8-1.8,1.8-1.8s1.8.8,1.8,1.8-.8,1.8-1.8,1.8-1.8-.8-1.8-1.8Z"/>
        <g>
          <g>
            <path class="cls-61" d="m501.79,174.08l2.6.5c-.4,1.1-.5,2.3-.5,3.6,0,5.6,4.6,10.2,10.2,10.2,4.5,0,8.4-2.9,9.7-7,.1.1,1-3.7,1.4-3.6.4,0,.3,3.9.5,3.9.7,5.1,5.1,8.6,10.1,8.6,5.6,0,10.2-4.6,10.2-10.2,0-.4,0-.8-.1-1.2l3.2-3.3,1.7,4.2c-.7,1.3-1,2.8-1,4.4,0,5.4,4.3,9.7,9.7,9.7,3.4,0,6.3-1.7,8.1-4.3l2-2.7v3.4c0,3.4,1.3,6.4,4.5,6.9,0,0,3.6.2,8.3-3.7s7.4-7.2,7.4-7.2l.4,3.9s-3.9,6.4-8.2,9.1c-2.3,1.4-5.9,3-8.8,2.5-3-.5-5.1-3-6.2-6-2.1,1.3-4.7,2.1-7.4,2.1-5.8,0-11-3.4-13.1-8.4-2.7,3-6.4,4.9-10.8,4.9-4.7,0-8.9-2.2-11.6-5.6-2.6,2.5-6.2,4.1-10.1,4.1-5.1,0-9.7-2.6-12.3-6.7-2.6,4-7.2,6.7-12.3,6.7-3.9,0-7.5-1.6-10.1-4.1-2.7,3.4-6.9,5.6-11.6,5.6-4.4,0-8.1-1.9-10.8-4.9-2.1,5.1-7.3,8.4-13.1,8.4-2.7,0-5.2-.8-7.4-2.1-1.1,2.9-3.2,5.5-6.2,6-2.8.5-6.4-1-8.8-2.5-4.3-2.6-8.2-9.1-8.2-9.1l.4-3.9s2.6,3.3,7.4,7.2,8.3,3.7,8.3,3.7c3.1-.5,4.5-3.6,4.5-6.9v-3.4l2,2.7c1.7,2.6,4.7,4.3,8.1,4.3,5.4,0,9.7-4.4,9.7-9.7,0-1.6-.3-3.1-1-4.4l1.7-4.2,3.2,3.3c0,.4-.1.8-.1,1.2,0,5.6,4.5,10.2,10.2,10.2,5,0,9.5-3.5,10.1-8.6.1.1.1-3.8.5-3.9.4,0,1.2,3.8,1.4,3.6,1.3,4.1,5.2,7,9.7,7,5.6,0,10.2-4.6,10.2-10.2,0-1.2-.1-2.4-.5-3.6l2.8-.5h0Z"/>
            <path class="cls-28" d="m571.69,187.48c.6-1.8.1-3.6-1.2-4-1.2-.4-2.7.7-3.3,2.6-.6,1.8-.1,3.6,1.2,4s2.7-.8,3.3-2.6Z"/>
            <path class="cls-28" d="m527.49,178.37c.2-1.9-.6-3.6-1.9-3.7-1.3-.2-2.5,1.2-2.8,3.1-.2,1.9.6,3.6,1.9,3.7,1.3.3,2.5-1.2,2.8-3.1h0Z"/>
            <path class="cls-28" d="m476.09,178.37c-.2-1.9.6-3.6,1.9-3.7,1.3-.2,2.5,1.2,2.8,3.1.2,1.9-.6,3.6-1.9,3.7s-2.6-1.2-2.8-3.1h0Z"/>
            <path class="cls-28" d="m431.79,187.48c-.6-1.8-.1-3.6,1.2-4,1.2-.4,2.7.7,3.3,2.6.6,1.8.1,3.6-1.2,4-1.2.4-2.7-.8-3.3-2.6Z"/>
            <g>
              <path class="cls-61" d="m450.99,156.28c2.2,1.5,4.1,3.9,4.8,6.6,0,0,.3-.6,1.5-1.3s2.2-.7,2.2-.7c0,0-.4,2.1-.5,2.9-.2.8-.2,3-.7,5.1s-1.3,3.7-1.3,3.7c-.9-.7-2-1.1-3.3-.9-1.2.2-2.2,1-2.8,2,0,0-1.4-1.2-2.5-3s-1.9-3.9-2.4-4.5c-.4-.6-1.5-2.5-1.5-2.5,0,0,1-.4,2.4-.1,1.4.3,1.8.7,1.8.7-.1-2.9.8-5.8,2.3-8h0Z"/>
              <path class="cls-38" d="m451.89,178.58c-.7-.6-1.2-1.4-1.4-2.4s0-1.9.5-2.7c0,0-1.8-1-3.8-1.5-1.5-.4-4.1-.4-4.9-.4s-2.4-.1-2.4-.1c0,0,.1.4.6,1.2.5,1,1,1.6,1,1.6-2.6.6-4.9,2.5-6.3,4.6,2,1.5,4.8,2.4,7.5,2.1,0,0-.2.8-.4,1.9-.1.9-.1,1.3-.1,1.3,0,0,1.5-.6,2.2-.9s3.2-1.2,4.5-2.1c1.6-1,3-2.6,3-2.6h0Z"/>
              <path class="cls-38" d="m457.79,177.58c.5-.8.7-1.7.5-2.7s-.7-1.8-1.4-2.4c0,0,1.4-1.6,3-2.7,1.3-.9,3.7-1.8,4.5-2.1.7-.3,2.2-.9,2.2-.9,0,0,0,.4-.1,1.3-.2,1.1-.4,1.9-.4,1.9,2.7-.3,5.4.7,7.5,2.1-1.4,2.1-3.7,3.9-6.3,4.5,0,0,.5.6,1,1.6.5.8.6,1.2.6,1.2,0,0-1.6,0-2.4-.1-.8,0-3.4,0-4.9-.4-1.9-.3-3.8-1.3-3.8-1.3h0Z"/>
              <path class="cls-57" d="m449.99,175.58c0-2.5,2-4.5,4.5-4.5s4.5,2,4.5,4.5-2,4.5-4.5,4.5-4.5-2.1-4.5-4.5Z"/>
            </g>
            <g>
              <path class="cls-61" d="m501.59,149.08c2.2,2.1,3.8,5.2,4,8.3,0,0,.4-.6,1.9-1.1,1.5-.6,2.6-.3,2.6-.3,0,0-.8,2.3-1.1,3.1s-.8,3.3-1.7,5.5c-.9,2.2-2.2,3.9-2.2,3.9-.8-1-2.1-1.6-3.5-1.6s-2.6.6-3.5,1.6c0,0-1.3-1.7-2.2-3.9-.9-2.2-1.4-4.7-1.7-5.5-.3-.8-1.1-3.1-1.1-3.1,0,0,1.1-.2,2.6.3,1.5.6,1.9,1.1,1.9,1.1.3-3.1,1.9-6.2,4-8.3h0Z"/>
              <path class="cls-38" d="m498.29,174.17c-.7-.8-1.1-1.8-1.1-2.9s.4-2.1,1.1-2.9c0,0-1.9-1.4-3.9-2.4-1.6-.8-4.5-1.3-5.4-1.5s-2.6-.5-2.6-.5c0,0,.1.4.4,1.5.4,1.2.8,2,.8,2-3,.2-5.9,1.8-7.9,3.9,2,2.1,4.8,3.6,7.9,3.8,0,0-.4.8-.8,2-.3,1-.4,1.5-.4,1.5,0,0,1.8-.4,2.6-.5s3.8-.7,5.4-1.5c2-1.1,3.9-2.5,3.9-2.5h0Z"/>
              <path class="cls-38" d="m505.09,174.17c.7-.8,1.1-1.8,1.1-2.9s-.4-2.1-1.1-2.9c0,0,1.9-1.4,3.9-2.4,1.6-.8,4.5-1.3,5.4-1.5s2.6-.5,2.6-.5c0,0-.1.4-.4,1.5-.4,1.2-.8,2-.8,2,3,.2,5.9,1.8,7.9,3.9-2,2.1-4.8,3.6-7.9,3.8,0,0,.4.8.8,2,.3,1,.4,1.5.4,1.5,0,0-1.8-.4-2.6-.5s-3.8-.7-5.4-1.5c-2.1-1.1-3.9-2.5-3.9-2.5h0Z"/>
            </g>
            <g>
              <path class="cls-61" d="m552.49,156.28c-2.2,1.5-4.1,3.9-4.8,6.6,0,0-.3-.6-1.5-1.3s-2.2-.7-2.2-.7c0,0,.3,2.1.5,2.9.2.8.2,3,.7,5.1s1.3,3.7,1.3,3.7c.9-.7,2-1.1,3.3-.9,1.2.2,2.2,1,2.8,2,0,0,1.4-1.2,2.5-3s1.9-3.9,2.3-4.5c.4-.6,1.5-2.5,1.5-2.5,0,0-1-.4-2.3-.1-1.4.3-1.8.7-1.8.7.2-2.9-.7-5.8-2.3-8h0Z"/>
              <path class="cls-38" d="m551.59,178.58c.7-.6,1.2-1.4,1.4-2.4s0-1.9-.5-2.7c0,0,1.8-1,3.8-1.5,1.5-.4,4.1-.4,4.9-.4s2.4-.1,2.4-.1c0,0-.1.4-.6,1.2-.5,1-1,1.6-1,1.6,2.6.6,4.9,2.5,6.3,4.6-2,1.5-4.8,2.4-7.5,2.1,0,0,.2.8.4,1.9.1.9.1,1.3.1,1.3,0,0-1.5-.6-2.2-.9-.7-.3-3.2-1.2-4.5-2.1-1.6-1-3-2.6-3-2.6h0Z"/>
              <path class="cls-38" d="m545.69,177.58c-.5-.8-.7-1.7-.5-2.7s.7-1.8,1.4-2.4c0,0-1.4-1.6-3-2.7-1.3-.9-3.7-1.8-4.5-2.1-.7-.3-2.2-.9-2.2-.9,0,0,0,.4.1,1.3.2,1.1.4,1.9.4,1.9-2.7-.3-5.4.7-7.5,2.1,1.4,2.1,3.7,3.9,6.3,4.5,0,0-.5.6-1,1.6-.5.8-.6,1.2-.6,1.2,0,0,1.6,0,2.4-.1.8,0,3.4,0,4.9-.4,1.9-.3,3.8-1.3,3.8-1.3h0Z"/>
              <path class="cls-57" d="m544.49,175.58c0-2.5,2-4.5,4.5-4.5s4.5,2,4.5,4.5-2,4.5-4.5,4.5-4.5-2.1-4.5-4.5Z"/>
            </g>
            <g>
              <path class="cls-57" d="m594.69,185.48c-1.1-1.2-3.2-.9-4.9.6s-2.1,3.6-1,4.8,3.2.9,4.9-.6c1.6-1.4,2.1-3.6,1-4.8Z"/>
              <path class="cls-38" d="m588.29,188.37c.2-.8.7-1.6,1.5-2.3,1.6-1.5,3.8-1.7,4.9-.6.1.2.3.4.4.6,0,0,2.3-4.6,5-6.1s7.2-1.1,7.2-1.1c0-3.5-2.7-6.3-6.2-6.3-2.1,0-4,.9-5.1,2.4l-.5-2.3s-2.8.6-4.1,4,.1,8.3.1,8.3c0,0-.7-2.1-1.8-3.5s-3.8-2.9-5.2-3.6c-1.4-.7-2.8-1.7-2.8-1.7,0,0-.1.4-.1,1.3v1.8c-2.6-.4-5.6.1-7.9,1.1,1,2.1,2.9,4,5.4,5,0,0-.9.8-1.7,1.6-.7.7-.9,1.1-.9,1.1,0,0,1.8.3,2.7.4.9.1,3.8.6,5.6.5,1.2-.2,2.7-.4,3.5-.6h0Z"/>
            </g>
            <g>
              <path class="cls-57" d="m408.79,185.48c1.1-1.2,3.2-.9,4.9.6s2.1,3.6,1,4.8-3.2.9-4.9-.6c-1.6-1.4-2.1-3.6-1-4.8Z"/>
              <path class="cls-38" d="m415.19,188.37c-.2-.8-.7-1.6-1.5-2.3-1.6-1.5-3.8-1.7-4.9-.6-.1.2-.3.4-.4.6,0,0-2.3-4.6-5-6.1s-7.2-1.1-7.2-1.1c0-3.5,2.7-6.3,6.2-6.3,2.1,0,4,.9,5.1,2.4l.5-2.3s2.8.6,4.1,4c1.3,3.4-.1,8.3-.1,8.3,0,0,.7-2.1,1.8-3.5,1-1.4,3.8-2.9,5.1-3.6,1.4-.7,2.8-1.7,2.8-1.7,0,0,.1.4.1,1.3.1,1.1,0,1.8,0,1.8,2.6-.4,5.6.1,7.9,1.1-1,2.1-2.9,4-5.4,5,0,0,.9.8,1.7,1.6.7.7.9,1.1.9,1.1,0,0-1.8.3-2.6.4-.9.1-3.8.6-5.6.5-1.2-.2-2.7-.4-3.5-.6h0Z"/>
            </g>
          </g>
          <path class="cls-57" d="m497.19,171.28c0-2.5,2-4.5,4.5-4.5s4.5,2,4.5,4.5-2,4.5-4.5,4.5-4.5-2-4.5-4.5Z"/>
        </g>
        <g>
          <g>
            <path class="cls-69" d="m492.29,103.07c0-5.1,4.1-9.2,9.2-9.2s9.2,4.1,9.2,9.2-4.1,9.2-9.2,9.2-9.2-4.2-9.2-9.2Z"/>
            <g class="cls-79">
              <polygon class="cls-27" points="512.19 101.78 512.19 106.78 491.49 106.78 491.49 101.78 499.09 101.78 499.09 87.28 494.09 87.28 494.09 82.28 499.09 82.28 499.09 77.28 504.09 77.28 504.09 82.28 509.09 82.28 509.09 87.28 504.09 87.28 504.09 101.78 512.19 101.78"/>
            </g>
          </g>
          <polygon class="cls-27" points="508.99 101.78 508.99 106.78 494.09 106.78 494.09 101.78 499.09 101.78 499.09 87.28 494.09 87.28 494.09 82.28 499.09 82.28 499.09 77.28 504.09 77.28 504.09 82.28 509.09 82.28 509.09 87.28 504.09 87.28 504.09 101.78 508.99 101.78"/>
          <g class="cls-84">
            <polygon class="cls-27" points="512.19 101.78 512.19 106.78 491.49 106.78 491.49 101.78 499.09 101.78 499.09 87.28 494.09 87.28 494.09 82.28 499.09 82.28 499.09 77.28 504.09 77.28 504.09 82.28 509.09 82.28 509.09 87.28 504.09 87.28 504.09 101.78 512.19 101.78"/>
          </g>
          <path class="cls-49" d="m504.09,94.28c3.8,1.1,6.5,4.6,6.5,8.8,0,5.1-4.1,9.2-9.2,9.2s-9.2-4.1-9.2-9.2c0-4.2,2.9-7.8,6.8-8.9"/>
        </g>
        <path class="cls-31" d="m502.39,490.18c-27.1,0-54-7-76.5-18.7-16.6-8.7-27.7-26.2-27.7-46.3v-72.8h208v72.8c0,20.1-11,37.6-27.7,46.3-22.5,11.7-49,18.7-76.1,18.7h0Z"/>
        <rect class="cls-23" x="501.99" y="230.37" width="104.2" height="121.9"/>
        <rect class="cls-24" x="398.09" y="230.37" width="103.9" height="121.9"/>
        <g>
          <path class="cls-67" d="m502.09,425.08c0,28.8-23.1,52.1-51.9,52.1s-52.1-23.3-52.1-52.1v-72.9h104v72.9Z"/>
          <g class="cls-70">
            <g>
              <rect class="cls-3" x="420.79" y="349.58" width="12.2" height="134.9"/>
              <rect class="cls-3" x="397.59" y="349.58" width="12.2" height="134.9"/>
              <rect class="cls-3" x="443.99" y="349.58" width="12.2" height="134.9"/>
              <rect class="cls-3" x="467.19" y="349.58" width="12.2" height="134.9"/>
              <rect class="cls-3" x="490.39" y="349.58" width="12.2" height="134.9"/>
            </g>
          </g>
          <path class="cls-22" d="m502.09,425.08c0,28.8-23.1,52.1-51.9,52.1s-52.1-23.3-52.1-52.1v-72.9h104v72.9Z"/>
        </g>
        <path class="cls-51" d="m606.29,352.18v72.9c0,28.8-23.4,52.1-52.1,52.1s-52.1-23.3-52.1-52.1v-72.9h104.2Z"/>
        <path class="cls-60" d="m559.09,457.58c2.8-.5,5.3-1.3,7.9-2.4l1.7,3.1c-2.9,1.3-6,2.3-9.3,2.8-.5,2.6-2.8,4.5-5.5,4.5s-5-1.9-5.5-4.4c-3.5-.5-6.7-1.4-9.8-2.8l1.7-3.1c2.7,1.2,5.5,2,8.5,2.4.6-1.4,1.8-2.5,3.3-3v-15.3h3.5v15.3c1.5.3,2.8,1.5,3.5,2.9h0Zm-10.2-46.4c-.2-.3-.3-.6-.4-1h-8.9v-3.5h8.8c.1-.3.2-.6.4-.9l-10.8-12.7,2.7-2.3,10.7,12.5c.2-.1.4-.2.6-.2v-16.7h3.5v16.6c.2,0,.4.1.5.2l10.5-12.6,2.7,2.3-10.5,12.5c.3.4.5.9.6,1.4h8.5v3.5h-8.6c-.1.4-.3.8-.6,1.1l10,12-2.7,2.3-9.9-12c-.2.1-.3.2-.5.2v19.8h-3.5v-19.8c-.2,0-.3-.1-.4-.2l-10.3,12-2.7-2.3,10.3-12.2h0Zm-27.7-37.9l13.1,15.4,2.7-2.3-13.1-15.4c.3-.4.5-.9.6-1.3h9.5v-3.5h-9.6c-.7-2.3-2.9-3.9-5.4-3.9-3.1,0-5.7,2.5-5.7,5.7,0,2.5,1.6,4.6,3.8,5.4v11.9h3.5v-11.8c.2-.1.5-.1.6-.2h0Zm14.1,79.2l-1.7,3.1c-3-2-5.6-4.3-7.9-7-1.8.6-3.8.2-5.4-1.1-2.4-2-2.7-5.6-.6-8l.3-.3c-1.4-3.4-2.4-7.1-2.7-11h3.5c.3,3.3,1.1,6.4,2.3,9.4,1-.1,2.1,0,3,.4l8.8-10.4,2.7,2.3-8.8,10.3c1.2,1.9,1.1,4.4-.2,6.3,1.9,2.3,4.2,4.3,6.7,6h0Zm-18.2-29.9v-8.8c-2.3-.7-4-2.9-4-5.4s1.7-4.7,4-5.4v-12h3.5v12c1.7.6,3.1,1.9,3.6,3.7h9.5v3.5h-9.5c-.6,1.6-1.9,3-3.5,3.5v8.8l-3.6.1h0Zm5.1,19c.9-1,2.4-1.1,3.4-.3,1,.9,1.1,2.4.3,3.4-.9,1-2.4,1.1-3.4.3-1.1-.8-1.2-2.3-.3-3.4Zm-4.5-10.2l-3.6-.9-.5-9.8,3.6-1.2v5.6c-.1,2.2.1,4.2.5,6.3h0Zm3-12.1l3.6.9s.2,6.2.1,4.9c-.1-1.6.4,4.9.4,4.9l-3.7,1.3c-.4-2-.5-4-.5-6.1v-5.9h.1Zm12,31.2c3,2.5,6.6,4.6,10.4,5.9l.8-3.7c-3.2-1-6.1-2.6-8.6-4.6l-2.6,2.4Zm-1.8,3.2c3.1,2.5,6.6,4.4,10.4,5.8l-2.7,2.7c-3-1.2-5.9-2.8-8.5-4.6l.8-3.9Zm4.7-21.5l3.5,1.5,6.3-7.4-2.1-3.2-7.7,9.1h0Zm-2.6-2.3l-2.1-3.2,6.3-7.4,3.5,1.6-7.7,9h0Zm-16.6-21.5c0-1.3,1.1-2.4,2.4-2.4s2.4,1.1,2.4,2.4-1.1,2.4-2.4,2.4-2.4-1.1-2.4-2.4Zm55.6,44.1l1.7,3.1c3-2,5.6-4.3,7.9-7,1.8.6,3.8.2,5.4-1.1,2.4-2,2.7-5.6.6-8l-.3-.3c1.4-3.4,2.4-7.1,2.7-11h-3.5c-.3,3.3-1.1,6.4-2.3,9.4-1-.1-2.1,0-3,.4l-8.9-10.4-2.7,2.3,8.8,10.3c-1.2,1.9-1.1,4.4.2,6.3-1.9,2.3-4.1,4.3-6.6,6h0Zm18.1-29.9v-8.8c2.3-.7,4-2.9,4-5.4s-1.7-4.7-4-5.4v-12h-3.5v12c-1.7.6-3.1,1.9-3.6,3.7h-9.5v3.5h9.5c.6,1.6,1.9,3,3.5,3.5v8.8l3.6.1h0Zm-5,19c-.9-1-2.4-1.1-3.4-.3-1,.9-1.1,2.4-.3,3.4.9,1,2.4,1.1,3.4.3,1.1-.8,1.2-2.3.3-3.4Zm4.5-10.2l3.6-.9.5-9.8-3.6-1.2v5.6c0,2.2-.2,4.2-.5,6.3h0Zm-3-12.1l-3.6.9s-.2,6.2-.1,4.9c.1-1.6-.4,4.9-.4,4.9l3.7,1.3c.4-2,.5-4,.5-6.1v-5.9h-.1Zm3.6-45.9v11.9h-3.5v-11.9c-.3-.1-.5-.2-.8-.3l-13,15.4-2.7-2.3,13.2-15.7c-.1-.2-.2-.5-.3-.7h-9.6v-3.5h9.6c.7-2.3,2.9-3.9,5.4-3.9,3.1,0,5.7,2.5,5.7,5.7-.1,2.4-1.7,4.6-4,5.3h0Zm-34.7,0v7.3h-3.5v-7.2c-1.7-.5-3.1-1.9-3.7-3.6h-8.6v-3.5h8.6c.7-2.3,2.8-3.9,5.4-3.9s4.7,1.6,5.4,3.9h8.7v3.5h-8.8c-.5,1.6-1.8,2.9-3.5,3.5h0Zm19.1,77.1c-3,2.5-6.6,4.6-10.4,5.9l-.8-3.7c3.2-1,6.1-2.6,8.6-4.6l2.6,2.4h0Zm1.8,3.2c-3.1,2.5-6.6,4.4-10.4,5.8l2.7,2.7c3-1.2,5.9-2.8,8.5-4.6l-.8-3.9Zm-59.2-71.5l-3.6,1.1v9.8l3.6,1v-11.9Zm3.5,0l3.6,1.1v9.8l-3.6,1v-11.9Zm65.9,0l-3.6,1.1v9.8l3.6,1v-11.9Zm3.5,0l3.6,1.1v9.8l-3.6,1v-11.9Zm-18.5,50l-3.5,1.5-6.3-7.4,2.1-3.2,7.7,9.1h0Zm2.7-2.3l2.1-3.2-6.3-7.4-3.5,1.6,7.7,9h0Zm-39.3-45.7l3.5-1.5,6.3,7.4-2.1,3.2-7.7-9.1h0Zm-2.7,2.2l-2.1,3.2,6.3,7.4,3.5-1.6-7.7-9h0Zm39.8-2.5l-3.5-1.5-6.3,7.5,2.1,3.1,7.7-9.1Zm2.7,2.2l2.1,3.2-6.3,7.5-3.5-1.5,7.7-9.2h0Zm-43.9,20.6l1.1-3.6h9.8l1.1,3.6h-12Zm0,3.5l1.1,3.6h9.8l1.1-3.6h-12Zm-14.3-42.2c0-1.3,1.1-2.4,2.4-2.4s2.4,1.1,2.4,2.4-1.1,2.4-2.4,2.4-2.4-1.1-2.4-2.4Zm26.1,1.8l-1.1,3.6h-9.8l-1.1-3.6h12Zm0-3.5l-1.1-3.6h-9.8l-1.1,3.6h12Zm43.3,42.1c0-1.3,1.1-2.4,2.4-2.4s2.4,1.1,2.4,2.4-1.1,2.4-2.4,2.4-2.4-1.1-2.4-2.4Zm-9.5-1.7l-1.1-3.6h-9.8l-1.1,3.6h12Zm0,3.5l-1.1,3.6h-9.8l-1.1-3.6h12Zm-25,49.8c0-1.3,1.1-2.4,2.4-2.4s2.4,1.1,2.4,2.4-1.1,2.4-2.4,2.4-2.4-1.1-2.4-2.4Zm4.1-17.7l3.6-1.1v-9.8l-3.6-1.1v12Zm-3.6,0l-3.6-1.1v-9.8l3.6-1.1v12Zm34-74.3c0-1.3,1.1-2.4,2.4-2.4s2.4,1.1,2.4,2.4-1.1,2.4-2.4,2.4-2.4-1-2.4-2.4Zm-34.8,0c0-1.3,1.1-2.4,2.4-2.4s2.4,1.1,2.4,2.4-1.1,2.4-2.4,2.4-2.4-1-2.4-2.4Zm13.5,1.8l1.1,3.6h9.8l1.1-3.6h-12Zm0-3.5l1.1-3.6h9.8l1.1,3.6h-12Zm-12.7,11.4l-3.6,1.1v9.8l3.6,1.1v-12Zm3.5,0l3.6,1.1v9.8l-3.6,1.1v-12Z"/>
        <path class="cls-68" d="m548.19,408.37c0-3.1,2.5-5.7,5.7-5.7s5.7,2.5,5.7,5.7-2.5,5.7-5.7,5.7-5.7-2.5-5.7-5.7Z"/>
        <path class="cls-57" d="m555.09,260.37l.1-1.4.2-.8s-3.3.3-5.1-.2-3.3-1.3-5-2.8c-1.6-1.5-2.3-2.4-3.5-2.6-2.8-.5-5,.9-5,.9,0,0,2.1.8,3.7,2.9,1.6,2,3.3,3.1,4,3.3,1.2.4,5.5.1,6.7.2,1.3.2,3.9.5,3.9.5h0Z"/>
        <g>
          <path class="cls-19" d="m570.69,255.48s0,1.6.2,3.1-.4,2.7-.2,3.5.3,1.4.6,2,.4,2,.4,2c0,0-.8-.6-1.5-1.2s-1.2-1-1.2-1c0,0,.2,1.6.2,2.2.1.7.5,2,1,2.7s1.8,2,2.2,2.9c.4,1,.3,3.1.3,3.1,0,0-1-1.6-1.8-1.9s-2.6-1.4-2.6-1.4c0,0,1.7,1.7,1.7,3.4s-.7,3.5-.7,3.5c0,0-.7-1.5-1.7-2.5s-2.3-2-2.3-2c0,0,1,2.5,1,4.3s-.3,5.4-.3,5.4c0,0-.8-1.4-1.7-2.1-.8-.7-1.8-1.3-2.1-1.7s1,1.4,1.1,2.5.7,5.1,4,10.3c1.9,3,5,8.2,11.4,6.5,6.5-1.7,4-10.9,2.7-15.1-1.3-4.3-2-9-2-10.6s1.2-6.5,1-7.4-.5-4.4.3-7.2c.8-2.9,1.5-4.1,2-5.2s.8-1.9,1-2.9c.2-1.1.2-3,.2-3,0,0,1.2,2.3,1.5,3.1s.3,3.3.3,3.3c0,0,.2-2.5,2-3.7s3.9-2.5,4.4-3.1c.5-.7.7-1.1.7-1.1,0,0-.2,4.2-1.3,5.9-.7,1.1-3.7,4.6-3.7,4.6,0,0,1.5-.6,2.5-.7,1-.1,1.8,0,1.8,0,0,0-1.3,1.1-2.9,3.6-1.7,2.5-1,2.8-2.2,4.9s-2.2,2.2-3.7,3.5c-2.2,1.9-1,9.5-.7,10.6s4.2,10.4,4.3,12.7c.1,2.2.5,7.3-3.3,10.5-2.4,2.1-6.4,2.1-7.3,2.7-.9.6-2.7,2.5-2.7,6.4s1.3,4.5,2.4,5.5c1,1,2.4.5,2.7,1.2s.5,1.2.9,1.6c.5.5.8,1,.6,1.8s-1.9,2.7-2.5,4c-.6,1.4-1.8,4.9-1.8,5.4s-.2,2.2.4,3c0,0,1.9,2.3.6,2.8-.8.3-1.6-.6-2-.5-1.1.3-1.7,1-2,1-.8-.1-.8-.5-.8-1.6-.1-1.1,0-1.6-.4-1.6-.5,0-.7.4-.8,1s-.1,1.9-.6,1.9-1.3-1-1.7-1.2c-.5-.2-1.7-.4-1.8-1s.8-1.9,1.6-2.1,1.6-.7,1-1.1c-.5-.5-1-.5-1.6,0s-1.7.1-1.6-.6c.1-.7.2-1.5.2-1.9-.1-.4-1-1.1.2-1.8,1.2-.7,1.7.6,2.9.4s1.8-.7,2.2-1.4c.5-.8.4-2.3-.5-3.3s-1.7-1.1-2-1.7-.8-2-.8-2c0,0,.2,2.6.1,3-.2.4-.1,2-.1,2,0,0-.8-1-1.5-1.7-.7-.8-1.3-3-1.3-3,0,0-.1,2.1-.1,2.9s.9,1.6.6,1.9c-.3.3-1.7-1.6-2.1-1.9-.4-.3-1.6-1.3-2.1-2.3s-.9-2.5-1-3.1c-.2-.5-.4-2.9-.2-3.5.4-.9,1-2.5,1-2.5h-2.7c-1.6,0-2.7-.5-3.3.6s-.3,3.4.5,6.3,1.2,4.3,1,4.9c-.2.5-1.2,1.7-1.6,2s-1.4.1-1.9-.1-1.2-.6-2.6-.6-2.3.1-2.8-.1c-.5-.1-1.8-.8-2.4-.7-.6.1-1.6.7-1.3,1.6.5,1.4-.5,1.6-1,1.6-.6-.1-1.1-.3-1.9-.5-.8-.2-1.9,0-1.7-.9s.5-1,.8-1.6c.4-.7.5-1.1.1-1.1-.5-.1-1-.1-1.5.2-.4.4-1.1,1.1-1.6.8-.5-.3-.9-.9-.9-2.3s-1.4-2.6-.1-2.6c1.3.1,2.9,1,3.2.3.3-.8.1-1.1-.6-1.7-.7-.6-1.6-.9-.6-1.7s1.2-.8,1.5-1.2c.3-.4.9-1.7,1.5-1.4,1.3.6.1,1.6,1.3,3.1,1.3,1.5,2.1,2,4.3,1.8s2.8-.5,2.8-1.2-.2-1.8-.2-2.3c-.1-.5.3-2.2.3-2.2,0,0-1,.6-1.3,1.3s-.9,1.8-.9,1.8c0,0-.2-1.3-.2-2.4,0-.6.3-1.7.2-1.9-.1-.6-.5-2-.5-2,0,0-.3,1.6-.6,2-.2.5-.3,2.3-.3,2.3,0,0-1.4-1.3-1-3.4.3-1.6-.2-3.8.2-4.5s1.6-3.6,4.3-3.7,4.8.1,5.7.1,4.3-.7,4.3-.7c0,0-6.2-3.3-7.5-4.3-1.4-1-3.6-3.6-4.3-4.7s-1.3-3.5-1.3-3.5c0,0-1.1.1-2.1.6-1,.6-2,1.5-2.6,2.2s-1.5,2.3-1.5,2.3c0,0,.2-2,.2-2.7s-.1-1.9-.1-1.9c0,0-.7,2.8-2.1,3.9-1.4,1-3,2.5-3,2.5,0,0,.2-1.6.2-1.9s.3-2.2.3-2.2c0,0-1,1.6-2.5,1.9s-3.8.2-3.9,1.2c-.2,1,.4,2.3.1,3s-1.1,1.2-1.1,1.2c0,0-.9-.8-1.6-.8s-1.5.4-1.5.4c0,0-.6-.9-.4-1.5.2-.6,1.4-1.5,1.1-1.8-.3-.4-1.2.1-1.8.4s-1.8.6-1.7-.4.4-1.6.1-2.3-.1-1.2.3-1.4c.5-.2,2.3.1,2.5-.4s-.5-1-1.7-1.4c-1.2-.3-1.8-1-1.2-1.7.6-.6.8-.8,1.1-1.4s.4-1.6,1.5-1.1.9,1.8,2,2.2,3.9-.2,4.5-.5c.6-.4,2.5-1.8,3.1-2.2.6-.4,3.3-2.5,3.3-2.5,0,0-1.6-1.2-2.2-1.8-.6-.6-1.6-2-2.2-2.3-.5-.3-3.1-1.3-4-1.4s-3.6-1-3.6-1c0,0,1.2-.4,1.6-.8.4-.4,1.3-1.2,1.8-1.2.5.1.6.1.6.1,0,0-2.5-.1-3-.3-.5-.2-2-1.2-2.6-1.2s-1.8.2-1.8.2c0,0,1.6-1,2.9-1.3,1.3-.2,2.3-.2,2.3-.2,0,0-2-.6-2.5-1.3-.5-.7-.9-1.8-1.3-2.2s-.6-1.2-1.2-1.3-1.8.8-2.4.8-1.1-.5-1.2-1.5,0-.6-.2-1.2c-.2-.5-1.2-1.8-.3-2,.9-.3,2.8.2,2.9-.2.2-.4-1-1.4-1.8-1.8s-2-1.1-1.3-1.7c.6-.6,1.3-.8,1.6-1.4.3-.5.8-2,1.5-1.5.8.5,1.8,2.7,2.4,2.6.6-.2.6-1.8.5-2.5s0-1.9.6-1.8c.6.1,1.1.9,2,1s2.3-.2,2.2.5-.6,1.6-1.3,2.3c-.6.8-.9,2.3-.5,3.3s1.5,2.6,2.4,3.2,2.7,1.1,3.8,1.9,3.7,2.9,4.6,3.2c.9.2,1.8.7,1.8.7,0,0,1-.5,2.3-.5s4.5.2,5.6-.3c1.2-.5,2.7-1.4,2.2-2.5s-3-2.1-2.8-3,1.2-.9,2.8-1,3.8.3,4.2-2,.5-3.7-1.7-4.2c-2.2-.5-3.9-.6-4.3-2.3-.4-1.7-.8-2.1-.3-2.6s1.3-.7,2.9-.8c1.6-.1,3.5-.1,4-.5s.6-1.5,1.3-2c.6-.5,3.2-.9,3.2-.9,0,0,3,1.6,5.8,3.8,2.5,1.9,4.8,4.8,4.8,4.8h0Z"/>
          <path class="cls-20" d="m549.09,253.78s-.3-1.1-.4-1.3-.2-.6-.2-.6c0,0,1.8,0,1.8.6-.1.6-.6.6-.7.8-.2.2-.5.5-.5.5h0Z"/>
          <path class="cls-14" d="m557.49,250.78l-.1-.9s1.6,0,2.3.6c1.2.9,1.9,2.2,1.9,2.3-.2.2-1.1-.6-1.8-.8,0,0-.5.1-.9.1s-.7-.2-.8-.5.1-.6.1-.6l-.7-.2h0Z"/>
          <path class="cls-49" d="m568.89,263.98s-.7-1-.9-1.4-.5-1-.5-1"/>
          <path class="cls-57" d="m525.99,253.48s1,.8,1.8.9c.8.1,1.6.1,1.7.1s.4-1.2.2-2c-.4-2.6-2.7-3.2-2.7-3.2,0,0,.7,1.6.3,2.3-.4,1.1-1.3,1.9-1.3,1.9h0Z"/>
          <path class="cls-57" d="m521.29,255.78s-.9-1.7-2.8-1.5c-1.9.2-3.1,1.8-3.1,1.8,0,0,2.1-.1,2.6.3.8.5,1,1.9,1,1.9,0,0,1.1-.7,1.5-1.2.3-.5.8-1.3.8-1.3h0Z"/>
          <path class="cls-57" d="m518.99,262.58s-1.6.2-2.5,1.3c-.9,1-.8,3-.8,3,0,0,1-1.2,2-1.2s2.4.4,2.4.4c0,0-.5-1.2-.5-1.8s-.6-1.7-.6-1.7Z"/>
          <polygon class="cls-20" points="549.19 262.37 549.89 261.18 550.59 262.27 549.19 262.37"/>
          <polygon class="cls-20" points="550.89 262.27 551.69 261.08 552.59 262.18 550.89 262.27"/>
          <polygon class="cls-20" points="550.09 255.08 551.79 255.78 550.29 256.58 550.09 255.08"/>
          <polygon class="cls-20" points="552.19 255.67 553.69 256.08 552.49 257.08 552.19 255.67"/>
          <path class="cls-5" d="m540.79,269.48s-1.7.5-2.3,1.5c-.8,1.2-.7,2.3-.7,2.3,0,0,1.4-1.2,3.2-.7s2,.7,2.8.6,2.6-.8,2.6-.8c0,0-1.5,1.9-1.3,3.2.2,1.3.4,1.9.3,2.5-.1,1.6-1.2,3.5-1.2,3.5,0,0,.6-.4,2.2-.8,1.5-.4,2.8-1.1,3.6-1.8.8-.6,1.9-2.2,1.9-2.2,0,0-.3,2.2,0,3.1s.5,3.6.5,3.6c0,0,1-.9,1.8-1.3.4-.2,1.5-.8,1.9-1.5.3-.5.6-2.3.6-2.3,0,0,.2,2,.8,2.9s1.5,3.8,1.5,3.8c0,0,.6-1.9,1.2-2.6.6-.8,1.4-1.8,1.5-2.3.1-.6-.2-1.9-.2-1.9l.8,1.9"/>
          <path class="cls-5" d="m538.49,281.48s1-1.8,1.9-2.4,2.2-1.6,2.6-1.8c.3-.1,1.9-1,1.9-1"/>
          <path class="cls-5" d="m546.99,287.68s2.3-1.2,2.9-1.6c1.4-.9,2.4-2.5,2.4-2.5"/>
          <path class="cls-57" d="m524.29,284.68s-.9-1-2.4-.7-2.5,2.1-2.5,2.1c0,0,1.3-.4,2-.2.8.2,1.3,1,1.3,1,0,0,.7-.6.9-1,.3-.3.7-1.2.7-1.2h0Z"/>
          <path class="cls-57" d="m522.59,291.18s-1.3-.2-2.4.7c-1.1.9-1.2,2.8-1.2,2.8,0,0,1-.9,1.9-.8.8.1,1.8.6,1.8.6,0,0,.2-1.1.2-1.4.2-.9-.3-1.9-.3-1.9h0Z"/>
          <path class="cls-57" d="m525.49,297.18s-.1,1.7.7,2.8c.8,1.1,2.3,1.3,2.3,1.3,0,0-.5-1.2-.6-1.8-.1-.9.7-1.6.7-1.6,0,0-.8-.8-1.5-.8s-1.6.1-1.6.1h0Z"/>
          <path class="cls-5" d="m560.09,300.08s4.2,2.8,4.1,5c-.1,2.3-2.3,5.3-2.3,5.3"/>
          <path class="cls-57" d="m540.79,312.58s-1-1.4-2.5-1.4c-1.5.1-3,1.5-3,1.5,0,0,1.8-.2,2.3.5.5.6.9,1.5.9,1.5,0,0,.8-.5,1.2-.8s1.1-1.3,1.1-1.3h0Z"/>
          <path class="cls-57" d="m536.29,318.77s-1.9-.3-2.9.8-.9,3-.9,3c0,0,1.2-1.4,2.2-1.2s2.2.7,2.2.7c0,0-.2-1.2-.3-1.7s-.4-1.6-.3-1.6h0Z"/>
          <path class="cls-57" d="m540.39,325.27s-.9,1.4-.2,2.5,2.2,1.6,2.2,1.6c0,0-.5-.8-.3-1.8.2-.8,1.4-1.8,1.4-1.8l-3.1-.5h0Z"/>
          <path class="cls-57" d="m566.09,327.87s-1.7-.4-2.6.2c-.9.6-1.7,3-1.7,3,0,0,1.5-1.4,2.6-1.2s1.9.6,1.9.6c0,0,.2-1,.1-1.7-.1-.3-.3-.9-.3-.9h0Z"/>
          <path class="cls-57" d="m566.89,334.48s-1.3,1.4-.8,2.6,1.3,2.4,1.3,2.4c0,0,0-1.8.5-2.2.8-.7,2.2-.8,2.2-.8,0,0-1.1-1-1.5-1.2-.4-.2-1.7-.8-1.7-.8h0Z"/>
          <path class="cls-57" d="m573.39,336.48s-.6,1.7.6,2.8c1.2,1.1,2.3,1.2,2.3,1.2,0,0-.9-1.8-.6-2.7.3-1,1.1-1.6,1.1-1.6,0,0-1.5-.5-1.8-.5s-1.6.8-1.6.8h0Z"/>
        </g>
        <g>
          <path class="cls-11" d="m507.39,457.87c4.3,1.4,6.5,4.8,6.5,8.8,0,5.2-4.8,9.1-11,9.1s-11.2-3.9-11.2-9.1c0-3.9,2.1-8.3,6.4-8.6,0,0-.1-.4-.5-1.1-.4-.5-1.3-1.5-1.3-1.5,0,0,1.6-.3,2.6.1s1.6,1,1.6,1c0,0,.4-.9,1.1-1.6.6-.7,1.5-1.2,1.5-1.2,0,0,1,.9,1.3,1.4.3.6.5,1.3.5,1.3,0,0,.9-.8,1.6-1.1.8-.3,1.7-.6,1.7-.6,0,0-.3,1-.5,1.5-.2.5-.3,1.6-.3,1.6h0Z"/>
          <path class="cls-33" d="m502.09,481.48s-8.2-5.9-11.8-6.7c-4.6-1-9.7-.2-11.9-.3.1.1,2.7,2,3.8,3.2,1.1,1.2,5,3.6,7.1,4.2,6.6,1.7,12.8-.5,12.8-.4h0Z"/>
          <path class="cls-33" d="m504.39,481.98s5.3-5.8,10.8-6.6c6.5-1,10.8.6,13.3,1.3.1,0-2.1,1.1-3.2,1.9s-4.1,3.4-8.6,3.5-9.5-.5-10.3-.4c-.8.1-2,.3-2,.3h0Z"/>
          <path class="cls-51" d="m502.79,474.77c-2.1-2-3.4-4.9-3.4-8.1s1.3-6.1,3.4-8.1c2.1,2,3.4,4.9,3.4,8.1s-1.3,6.1-3.4,8.1h0Z"/>
          <path class="cls-33" d="m500.69,486.68s1.3-3.3,1.4-6.2c.1-2.4-.3-4.8-.3-4.8h1.6s.8,2.5.8,4.8-.4,5.2-.4,5.2c0,0-1.1.2-1.5.4s-1.6.6-1.6.6h0Z"/>
        </g>
        <g>
          <path class="cls-28" d="m604.99,171.67c0-1.2,1-2.3,2.3-2.3s2.3,1,2.3,2.3-1,2.3-2.3,2.3-2.3-1.1-2.3-2.3Z"/>
          <path class="cls-28" d="m608.09,165.87c0-1.2,1-2.3,2.3-2.3s2.3,1,2.3,2.3-1,2.3-2.3,2.3-2.3-1.1-2.3-2.3Z"/>
          <path class="cls-28" d="m610.19,159.08c0-1.3,1-2.3,2.3-2.3s2.3,1,2.3,2.3-1,2.3-2.3,2.3-2.3-1-2.3-2.3Z"/>
          <path class="cls-28" d="m610.39,151.87c0-1.2,1-2.3,2.3-2.3s2.3,1,2.3,2.3-1,2.3-2.3,2.3-2.3-1-2.3-2.3Z"/>
          <path class="cls-28" d="m608.69,144.78c0-1.2,1-2.3,2.3-2.3s2.3,1,2.3,2.3-1,2.3-2.3,2.3-2.3-1-2.3-2.3Z"/>
          <path class="cls-28" d="m605.19,138.37c0-1.2,1-2.3,2.3-2.3s2.3,1,2.3,2.3-1,2.3-2.3,2.3-2.3-1.1-2.3-2.3Z"/>
          <path class="cls-28" d="m600.59,133.08c0-1.2,1-2.3,2.3-2.3s2.3,1,2.3,2.3-1,2.3-2.3,2.3-2.3-1.1-2.3-2.3Z"/>
          <path class="cls-28" d="m595.19,128.67c0-1.2,1-2.3,2.3-2.3s2.3,1,2.3,2.3-1,2.3-2.3,2.3-2.3-1.1-2.3-2.3Z"/>
          <path class="cls-28" d="m588.69,125.07c0-1.2,1-2.3,2.3-2.3s2.3,1,2.3,2.3-1,2.3-2.3,2.3-2.3-1.1-2.3-2.3Z"/>
          <path class="cls-28" d="m581.99,122.48c0-1.2,1-2.3,2.3-2.3s2.3,1,2.3,2.3-1,2.3-2.3,2.3-2.3-1-2.3-2.3Z"/>
          <path class="cls-28" d="m574.49,121.07c0-1.2,1-2.3,2.3-2.3s2.3,1,2.3,2.3-1,2.3-2.3,2.3-2.3-1.1-2.3-2.3Z"/>
          <path class="cls-28" d="m567.39,120.67c0-1.2,1-2.3,2.3-2.3s2.3,1,2.3,2.3-1,2.3-2.3,2.3-2.3-1.1-2.3-2.3Z"/>
          <path class="cls-28" d="m560.39,120.98c0-1.3,1-2.3,2.3-2.3s2.3,1,2.3,2.3-1,2.3-2.3,2.3-2.3-1.1-2.3-2.3Z"/>
          <path class="cls-28" d="m553.39,120.98c0-1.3,1-2.3,2.3-2.3s2.3,1,2.3,2.3-1,2.3-2.3,2.3-2.3-1.1-2.3-2.3Z"/>
          <path class="cls-28" d="m556.89,127.28c0-1.2,1-2.3,2.3-2.3s2.3,1,2.3,2.3-1,2.3-2.3,2.3-2.3-1.1-2.3-2.3Z"/>
          <path class="cls-28" d="m558.29,134.28c0-1.2,1-2.3,2.3-2.3s2.3,1,2.3,2.3-1,2.3-2.3,2.3-2.3-1.1-2.3-2.3Z"/>
          <path class="cls-28" d="m558.59,141.17c0-1.2,1-2.3,2.3-2.3s2.3,1,2.3,2.3-1,2.3-2.3,2.3-2.3-1-2.3-2.3Z"/>
          <path class="cls-28" d="m556.49,147.58c0-1.3,1-2.3,2.3-2.3s2.3,1,2.3,2.3-1,2.3-2.3,2.3-2.3-1.1-2.3-2.3Z"/>
          <path class="cls-28" d="m552.59,153.37c0-1.2,1-2.3,2.3-2.3s2.3,1,2.3,2.3-1,2.3-2.3,2.3-2.3-1.1-2.3-2.3Z"/>
          <path class="cls-28" d="m548.09,116.57c0-1.2,1-2.3,2.3-2.3s2.3,1,2.3,2.3-1,2.3-2.3,2.3-2.3-1.1-2.3-2.3Z"/>
          <path class="cls-28" d="m541.89,112.88c0-1.2,1-2.3,2.3-2.3s2.3,1,2.3,2.3-1,2.3-2.3,2.3-2.3-1-2.3-2.3Z"/>
          <path class="cls-28" d="m535.09,110.78c0-1.2,1-2.3,2.3-2.3s2.3,1,2.3,2.3-1,2.3-2.3,2.3-2.3-1.1-2.3-2.3Z"/>
          <path class="cls-28" d="m527.89,109.48c0-1.2,1-2.3,2.3-2.3s2.3,1,2.3,2.3-1,2.3-2.3,2.3-2.3-1.1-2.3-2.3Z"/>
          <path class="cls-28" d="m520.99,109.57c0-1.2,1-2.3,2.3-2.3s2.3,1,2.3,2.3-1,2.3-2.3,2.3-2.3-1.1-2.3-2.3Z"/>
          <path class="cls-28" d="m513.69,110.88c0-1.2,1-2.3,2.3-2.3s2.3,1,2.3,2.3-1,2.3-2.3,2.3-2.3-1.1-2.3-2.3Z"/>
          <path class="cls-28" d="m506.99,113.28c0-1.2,1-2.3,2.3-2.3s2.3,1,2.3,2.3-1,2.3-2.3,2.3-2.3-1-2.3-2.3Z"/>
          <path class="cls-28" d="m393.39,171.67c0-1.2,1-2.3,2.3-2.3s2.3,1,2.3,2.3-1,2.3-2.3,2.3-2.3-1.1-2.3-2.3Z"/>
          <path class="cls-28" d="m390.19,165.87c0-1.2,1-2.3,2.3-2.3s2.3,1,2.3,2.3-1,2.3-2.3,2.3-2.3-1.1-2.3-2.3Z"/>
          <path class="cls-28" d="m388.19,159.08c0-1.3,1-2.3,2.3-2.3s2.3,1,2.3,2.3-1,2.3-2.3,2.3-2.3-1-2.3-2.3Z"/>
          <path class="cls-28" d="m387.89,151.87c0-1.2,1-2.3,2.3-2.3s2.3,1,2.3,2.3-1,2.3-2.3,2.3-2.3-1-2.3-2.3Z"/>
          <path class="cls-28" d="m389.59,144.78c0-1.2,1-2.3,2.3-2.3s2.3,1,2.3,2.3-1,2.3-2.3,2.3-2.3-1-2.3-2.3Z"/>
          <path class="cls-28" d="m393.09,138.37c0-1.2,1-2.3,2.3-2.3s2.3,1,2.3,2.3-1,2.3-2.3,2.3-2.3-1.1-2.3-2.3Z"/>
          <path class="cls-28" d="m397.79,133.08c0-1.2,1-2.3,2.3-2.3s2.3,1,2.3,2.3-1,2.3-2.3,2.3-2.3-1.1-2.3-2.3Z"/>
          <path class="cls-28" d="m403.19,128.67c0-1.2,1-2.3,2.3-2.3s2.3,1,2.3,2.3-1,2.3-2.3,2.3-2.3-1.1-2.3-2.3Z"/>
          <path class="cls-28" d="m409.59,125.07c0-1.2,1-2.3,2.3-2.3s2.3,1,2.3,2.3-1,2.3-2.3,2.3-2.3-1.1-2.3-2.3Z"/>
          <path class="cls-28" d="m416.39,122.48c0-1.2,1-2.3,2.3-2.3s2.3,1,2.3,2.3-1,2.3-2.3,2.3-2.3-1-2.3-2.3Z"/>
          <path class="cls-28" d="m423.89,121.07c0-1.2,1-2.3,2.3-2.3s2.3,1,2.3,2.3-1,2.3-2.3,2.3-2.3-1.1-2.3-2.3Z"/>
          <path class="cls-28" d="m430.99,120.67c0-1.2,1-2.3,2.3-2.3s2.3,1,2.3,2.3-1,2.3-2.3,2.3-2.3-1.1-2.3-2.3Z"/>
          <path class="cls-28" d="m437.99,120.98c0-1.3,1-2.3,2.3-2.3s2.3,1,2.3,2.3-1,2.3-2.3,2.3-2.3-1.1-2.3-2.3Z"/>
          <path class="cls-28" d="m444.99,120.98c0-1.3,1-2.3,2.3-2.3s2.3,1,2.3,2.3-1,2.3-2.3,2.3-2.3-1.1-2.3-2.3Z"/>
          <circle class="cls-40" cx="443.69" cy="127.28" r="2.3"/>
          <path class="cls-28" d="m439.99,134.28c0-1.2,1-2.3,2.3-2.3s2.3,1,2.3,2.3-1,2.3-2.3,2.3-2.3-1.1-2.3-2.3Z"/>
          <path class="cls-28" d="m439.79,141.17c0-1.2,1-2.3,2.3-2.3s2.3,1,2.3,2.3-1,2.3-2.3,2.3-2.3-1-2.3-2.3Z"/>
          <path class="cls-28" d="m441.89,147.58c0-1.3,1-2.3,2.3-2.3s2.3,1,2.3,2.3-1,2.3-2.3,2.3-2.3-1.1-2.3-2.3Z"/>
          <path class="cls-28" d="m445.69,153.37c0-1.2,1-2.3,2.3-2.3s2.3,1,2.3,2.3-1,2.3-2.3,2.3-2.3-1.1-2.3-2.3Z"/>
          <path class="cls-28" d="m450.19,116.57c0-1.2,1-2.3,2.3-2.3s2.3,1,2.3,2.3-1,2.3-2.3,2.3-2.3-1.1-2.3-2.3Z"/>
          <path class="cls-28" d="m456.49,112.88c0-1.2,1-2.3,2.3-2.3s2.3,1,2.3,2.3-1,2.3-2.3,2.3-2.3-1-2.3-2.3Z"/>
          <path class="cls-28" d="m463.29,110.78c0-1.2,1-2.3,2.3-2.3s2.3,1,2.3,2.3-1,2.3-2.3,2.3-2.3-1.1-2.3-2.3Z"/>
          <path class="cls-28" d="m470.39,109.48c0-1.2,1-2.3,2.3-2.3s2.3,1,2.3,2.3-1,2.3-2.3,2.3-2.3-1.1-2.3-2.3Z"/>
          <path class="cls-28" d="m477.39,109.57c0-1.2,1-2.3,2.3-2.3s2.3,1,2.3,2.3-1,2.3-2.3,2.3-2.3-1.1-2.3-2.3Z"/>
          <path class="cls-28" d="m484.59,110.88c0-1.2,1-2.3,2.3-2.3s2.3,1,2.3,2.3-1,2.3-2.3,2.3-2.3-1.1-2.3-2.3Z"/>
          <path class="cls-28" d="m491.29,113.28c0-1.2,1-2.3,2.3-2.3s2.3,1,2.3,2.3-1,2.3-2.3,2.3-2.3-1-2.3-2.3Z"/>
        </g>
        <polygon class="cls-41" points="479.59 335.27 420.89 335.27 420.89 319.68 429.29 319.68 429.29 287.77 425.39 287.77 425.39 273.58 431.79 273.58 431.79 263.48 428.99 263.48 428.99 256.27 431.69 256.27 431.69 258.37 434.49 258.37 434.49 256.27 437.69 256.27 437.69 258.37 440.49 258.37 440.49 256.27 443.19 256.27 443.19 263.48 440.19 263.48 440.19 273.58 446.09 273.58 446.09 252.08 442.59 252.08 442.59 243.87 445.19 243.87 445.19 245.98 448.29 245.98 448.29 243.87 452.49 243.87 452.49 245.98 455.79 245.98 455.79 243.87 458.39 243.87 458.39 252.08 454.49 252.08 454.49 273.58 460.19 273.58 460.19 263.48 457.29 263.48 457.29 256.27 459.89 256.27 459.89 258.37 462.89 258.37 462.89 256.27 465.99 256.27 465.99 258.37 468.89 258.37 468.89 256.27 471.49 256.27 471.49 263.48 468.59 263.48 468.59 273.58 475.49 273.58 475.49 287.77 471.39 287.77 471.39 319.68 479.59 319.68 479.59 335.27"/>
        <path class="cls-52" d="m435.19,298.37c0-1.5,1.1-2.7,2.5-2.7s2.6,1.2,2.6,2.7v6.2h-5.1v-6.2h0Z"/>
        <path class="cls-52" d="m460.39,298.37c0-1.5,1.1-2.7,2.5-2.7s2.6,1.2,2.6,2.7v6.2h-5.1v-6.2h0Z"/>
        <path class="cls-52" d="m444.69,325.68c0-3.1,2.4-5.6,5.5-5.6s5.6,2.5,5.6,5.6v9.6h-11.2l.1-9.6h0Z"/>
        <path class="cls-34" d="m468.59,351.68c0-22.1,15.1-40,33.7-40s33.7,17.9,33.7,40-15.1,40-33.7,40-33.7-17.9-33.7-40Z"/>
        <path class="cls-16" d="m478.59,351.58c0-16.2,10.6-29.3,23.7-29.3s23.7,13.1,23.7,29.3-10.6,29.4-23.7,29.4-23.7-13.1-23.7-29.4Z"/>
        <g>
          <path class="cls-17" d="m491.09,331.48s-2.8,3.2-2.8,6.3,1.2,5.5,1.2,5.5c-.4-1.2-1.6-2.1-2.9-2.1-1.7,0-3.1,1.4-3.1,3.1,0,.5.3,1.3.5,1.7l1,2.1c.3-.8,1.1-1.2,2-1.2,1.2,0,2.2,1,2.2,2.2,0,.2,0,.4-.1.5h-2.5v2.3h2.3l-1.7,3.5,2.2-.9,1.7,2,1.8-2,2.2.9-1.7-3.5h2.3v-2.3h-2.5c0-.2-.1-.4-.1-.6,0-1.2,1-2.2,2.2-2.2.9,0,1.7.5,2,1.2l1-2.1c.2-.4.5-1.2.5-1.7,0-1.7-1.4-3.1-3.1-3.1-1.4,0-2.5.9-2.9,2.1,0,0,1.2-2.5,1.2-5.5s-2.8-6.3-2.9-6.2h0Z"/>
          <rect class="cls-62" x="486.59" y="349.68" width="9" height="2.3"/>
        </g>
        <g>
          <path class="cls-17" d="m513.09,331.48s-2.8,3.2-2.8,6.3,1.2,5.5,1.2,5.5c-.4-1.2-1.6-2.1-2.9-2.1-1.7,0-3.1,1.4-3.1,3.1,0,.5.3,1.3.5,1.7l1,2.1c.3-.8,1.1-1.2,2-1.2,1.2,0,2.2,1,2.2,2.2,0,.2,0,.4-.1.5h-2.5v2.3h2.3l-1.7,3.5,2.2-.9,1.7,2,1.8-2,2.2.9-1.7-3.5h2.2v-2.3h-2.5c0-.2-.1-.4-.1-.6,0-1.2,1-2.2,2.2-2.2.9,0,1.7.5,2,1.2l1-2.1c.2-.4.5-1.2.5-1.7,0-1.7-1.4-3.1-3.1-3.1-1.3,0-2.5.9-2.9,2.1,0,0,1.2-2.5,1.2-5.5s-2.7-6.3-2.8-6.2h0Z"/>
          <rect class="cls-62" x="508.69" y="349.68" width="9" height="2.3"/>
        </g>
        <g>
          <path class="cls-17" d="m502.09,351.48s-2.8,3.2-2.8,6.3,1.2,5.5,1.2,5.5c-.4-1.2-1.6-2.1-2.9-2.1-1.7,0-3.1,1.4-3.1,3.1,0,.5.3,1.3.5,1.7l1,2.1c.3-.8,1.1-1.2,2-1.2,1.2,0,2.2,1,2.2,2.2,0,.2,0,.4-.1.5h-2.5v2.3h2.3l-1.7,3.5,2.2-.9,1.7,2,1.8-2,2.2.9-1.7-3.5h2.2v-2.3h-2.5c0-.2-.1-.4-.1-.6,0-1.2,1-2.2,2.2-2.2.9,0,1.7.5,2,1.2l1-2.1c.2-.4.5-1.2.5-1.7,0-1.7-1.4-3.1-3.1-3.1-1.4,0-2.5.9-2.9,2.1,0,0,1.2-2.5,1.2-5.5s-2.7-6.3-2.8-6.2h0Z"/>
          <rect class="cls-62" x="497.59" y="369.68" width="9" height="2.3"/>
        </g>
        <path class="cls-27" d="m569.49,246.08h-.6c0,.1-.3.5-.5.8-.5.5-1.3.6-1.8.1-.2-.2-.3-.6-.3-.9-.4.2-.7.2-1.1,0-.5-.3-.7-1.1-.3-1.8.1-.1.1-.3.2-.4v-.7l-.7.2-.2.4c-.5.5-1.1.7-1.5.4-.2-.1-.3-.6-.3-.6,0,0-.2.2-.4.2-1.1.3-1.5-2.3-1.6-3l-.4.5s.3,1.6.2,2.9c-.2,1.3-.6,2.6-.6,2.6,1.5.4,3.8,1.8,6.2,3.6,2.3,1.9,4.1,3.9,4.8,5.3,0,0,1.2-.7,2.4-1.1,1.2-.4,2.8-.4,2.8-.4l.5-.5c-.7.1-3.3.2-3.2-.9,0-.2.1-.4.2-.4,0,0-.4,0-.6-.1-.4-.3-.4-.9,0-1.5l.4-.3v-.7l-.7.1c-.1.1-.2.2-.3.3-.5.5-1.3.6-1.8.1-.3-.3-.3-.6-.2-1-.3.1-.7.1-.9-.1-.5-.4-.6-1.1-.2-1.8.2-.3.6-.7.7-.7l-.2-.6h0Z"/>
        <path class="cls-14" d="m564.89,247.58c.1-.1.3-.1.5,0s.2.3.1.5c-.1.1-.3.1-.5,0s-.2-.3-.1-.5h0Z"/>
        <path class="cls-14" d="m566.79,249.37l-.7-.6c-.1-.1-.2-.3-.1-.4.1-.1.2-.1.4,0l.7.6.7.6c.1.1.2.3.1.4-.1.1-.2.1-.4,0l-.7-.6h0Z"/>
        <path class="cls-14" d="m563.19,246.67l-.5-.3c-.1-.1-.2-.2-.1-.4.1-.1.2-.1.3-.1l.5.3.5.3c.1.1.2.2.1.4s-.2.1-.3.1l-.5-.3h0Z"/>
        <path class="cls-14" d="m561.09,245.17c.1-.1.3-.1.5,0s.2.3.1.5c-.1.1-.3.1-.5,0-.2-.2-.2-.4-.1-.5h0Z"/>
        <path class="cls-14" d="m568.99,250.98c.1-.1,0-.3-.1-.5s-.4-.1-.5,0,0,.3.1.5.4.1.5,0h0Z"/>
        <path class="cls-14" d="m570.19,252.37l.4.4c.1.1.3.1.4.1.1-.1.1-.2,0-.4l-.4-.4-.4-.5c-.1-.1-.3-.1-.4-.1-.1.1-.1.2,0,.4l.4.5h0Z"/>
        <path class="cls-14" d="m572.09,254.17c.1-.1,0-.3-.1-.5-.2-.1-.4-.1-.5,0s0,.3.1.5c.2.1.4.1.5,0h0Z"/>
        <g>
          <polygon class="cls-27" points="566.49 240.98 565.19 240.98 564.99 242.87 565.09 243.17 565.39 243.17 566.99 242.08 566.49 240.98"/>
          <polygon class="cls-27" points="563.09 241.98 563.09 243.17 564.99 243.37 565.29 243.28 565.29 242.98 564.19 241.37 563.09 241.98"/>
          <polygon class="cls-27" points="567.09 244.37 565.99 244.98 564.89 243.37 564.89 243.08 565.19 242.98 567.09 243.17 567.09 244.37"/>
          <path class="cls-27" d="m564.59,242.87c.2-.3.5-.4.8-.2s.4.5.2.8-.5.4-.8.2c-.3-.1-.4-.5-.2-.8Z"/>
        </g>
        <g>
          <path class="cls-2" d="m560.09,240.87s-.3-1-.5-1.6c-.2-.4-.8-.9-.8-.9,0-.1.8-.4,1.8.2.8.7-.1,1.9-.1,1.9,0,0-.2.4-.4.4h0Z"/>
          <g>
            <polygon class="cls-27" points="562.29 241.58 561.39 242.37 559.99 241.08 560.09 240.87 560.19 240.58 562.09 240.48 562.29 241.58"/>
            <path class="cls-27" d="m559.89,240.78c.1-.3.4-.5.6-.4.2.1.3.4.2.7s-.4.5-.6.4c-.2,0-.3-.3-.2-.7Z"/>
          </g>
        </g>
        <g>
          <polygon class="cls-27" points="571.09 244.08 569.89 243.87 569.39 245.78 569.49 246.08 569.79 246.08 571.49 245.17 571.09 244.08"/>
          <polygon class="cls-27" points="567.69 244.58 567.49 245.78 569.39 246.28 569.69 246.17 569.69 245.87 568.79 244.17 567.69 244.58"/>
          <polygon class="cls-27" points="571.29 247.48 570.19 247.98 569.29 246.28 569.29 245.87 569.59 245.87 571.49 246.37 571.29 247.48"/>
          <path class="cls-27" d="m568.99,245.67c.2-.2.6-.3.8-.1s.3.6.1.8c-.2.3-.6.3-.8.1-.2-.2-.3-.5-.1-.8h0Z"/>
        </g>
        <g>
          <polygon class="cls-27" points="575.19 248.08 575.49 249.28 573.69 249.87 573.29 249.87 573.29 249.48 573.99 247.78 575.19 248.08"/>
          <polygon class="cls-27" points="574.89 251.58 573.79 251.78 573.09 249.98 573.19 249.67 573.49 249.67 575.29 250.37 574.89 251.58"/>
          <polygon class="cls-27" points="571.79 248.17 571.39 249.28 573.19 250.08 573.49 249.98 573.49 249.67 572.89 247.87 571.79 248.17"/>
          <path class="cls-27" d="m573.69,250.28c.2-.2.2-.6,0-.8s-.6-.2-.8,0-.2.6,0,.8c.2.2.6.2.8,0Z"/>
        </g>
        <g>
          <path class="cls-2" d="m576.59,254.17s1,.1,1.6.2c.4.1,1.1.6,1.1.6.1-.1.2-.9-.6-1.7-.8-.6-1.8.5-1.8.5,0,0-.3.2-.3.4h0Z"/>
          <g>
            <polygon class="cls-27" points="575.49 252.28 574.89 253.28 576.39 254.37 576.59 254.17 576.89 254.08 576.59 252.17 575.49 252.28"/>
            <path class="cls-27" d="m576.79,254.48c.3-.2.4-.5.3-.7-.1-.2-.5-.2-.7-.1s-.4.5-.3.7c0,.2.4.2.7.1Z"/>
          </g>
        </g>
      </g>
    </g>
  </g>
</svg>